<?xml version="1.0" encoding="UTF-8"?>
<svg id="svg2" xmlns="http://www.w3.org/2000/svg" xmlns:svg="http://www.w3.org/2000/svg" xmlns:sodipodi="http://sodipodi.sourceforge.net/DTD/sodipodi-0.dtd" xmlns:rdf="http://www.w3.org/1999/02/22-rdf-syntax-ns#" xmlns:inkscape="http://www.inkscape.org/namespaces/inkscape" xmlns:dc="http://purl.org/dc/elements/1.1/" xmlns:cc="http://creativecommons.org/ns#" version="1.1" viewBox="0 0 130.29 135.15">
  <!-- Generator: Adobe Illustrator 30.0.0, SVG Export Plug-In . SVG Version: 2.1.1 Build 123)  -->
  <defs>
    <style>
      .st0 {
        fill: #231f20;
      }
    </style>
  </defs>
  <g id="_x3C_defs">
    <inkscape:perspective id="perspective2447" inkscape:persp3d-origin="372.04722 : 350.78742 : 1" inkscape:vp_x="0 : 526.18114 : 1" inkscape:vp_y="0 : 1000.0001 : 0" inkscape:vp_z="744.09445 : 526.18114 : 1" sodipodi:type="inkscape:persp3d"/>
  </g>
  <sodipodi:namedview id="base" bordercolor="#666666" borderopacity="1.0" fit-margin-bottom="0" fit-margin-left="0" fit-margin-right="0" fit-margin-top="0" inkscape:current-layer="layer1" inkscape:cx="323.39874" inkscape:cy="155.77336" inkscape:document-units="px" inkscape:pageopacity="0.0" inkscape:pageshadow="2" inkscape:window-height="1053" inkscape:window-maximized="1" inkscape:window-width="1858" inkscape:window-x="-8" inkscape:window-y="-8" inkscape:zoom="1" pagecolor="#ffffff" showgrid="false"/>
  <g id="layer1" inkscape:groupmode="layer" inkscape:label="Calque 1">
    <g id="g36960">
      <path id="path4077" class="st0" d="M31.27,68.67h-4.15v5.25h4.15v-5.25ZM13.13,108.4c5.99,7.91,16.52,6.1,16.52,6.1,1.28-11.2-3.25-14.83-3.25-14.83-2.82,5.94,1.44,13.12,1.44,13.12-6.4-5.91-14.7-4.4-14.7-4.4M24.05,46.95l-2.01-1.88c-4.87,1.24-8.4,5.55-8.4,5.55,2.28-5.47,1.05-10.58.02-13.3l-1.46-1.2c-4.22,8.01.45,16.79.45,16.79,6.49-1.56,9.79-4.13,11.4-5.96M37.64,120.01c-.21-3.48-.84-6.01-1.63-8.04h-4c1.08,3.81,3.54,6.67,3.54,6.67-7.33-4.71-15.25-1.78-15.25-1.78,7.27,6.75,17.34,3.15,17.34,3.15M36.66,60.66v45.6h22.59c2.55.07,5.18,2.07,5.18,2.07v-36.48c-13.69-.29-16.44-11.19-16.44-11.19,0,0-11.34,0-11.34,0ZM47.35,88.38h-1.7v8.83h-2.14v-8.83h-1.68v-2.01h5.52v2.01ZM58.01,97.38c-.61,0-1.35-.18-1.84-.54v-2.04c.51.35.99.58,1.63.58.69,0,1.24-.47,1.24-1.18,0-.83-.67-1.15-1.27-1.59-1.24-.83-2-1.63-2-3.21,0-1.71.99-3.2,2.83-3.2.69,0,1.31.19,1.9.53v2.09c-.43-.37-.96-.69-1.55-.69-.67,0-1.08.4-1.08,1.07,0,1.78,3.26,1.89,3.26,4.82,0,1.92-1.1,3.37-3.12,3.37M59.6,73.17h2.14v10.84h-2.14v-10.84ZM52.86,73.17h2.16c1.37,0,3.8.14,3.8,3.1,0,1.19-.47,2.21-1.53,2.8l1.88,4.93h-2.26l-1.88-5h-.03v5h-2.14v-10.83h0ZM55.12,97.21h-2.28l-.4-1.82h-2.17l-.39,1.82h-2.12l2.52-10.84h2.25l2.61,10.84h0ZM52.42,73.17v2.01h-2.17v2.36h1.91v2.01h-1.91v2.45h2.2v2.01h-4.33v-10.82l-3.01,10.82h-1.75l-3.13-10.83h2.3l1.3,5.2c.19.61.26,1.24.39,1.85h.03c.12-.63.16-1.24.33-1.88l1.31-5.17h6.55ZM89.1,37.1l-6.77,7.36.07,11.77s-.21,1.94-.62,2.9h4.35l12.44-12.44-9.46-9.6h0ZM31.4,93.48h-4.15v5.25h4.15v-5.25ZM38.17,42.55l8.71,8.57v-6.63l-8.71-8.71v6.77ZM31.31,115.95c.54,0,.99-.44.99-.99s-.44-.99-.99-.99-.98.45-.98.99.44.99.98.99M15.54,45.79c0,.54.44.98.99.98s.98-.44.98-.98-.43-.99-.98-.99-.99.44-.99.99M31.37,108.77c.03.45.12-.1.12-.1v-6.41l-1.06,1.18c.6,1.62.81,3.94.94,5.33M46.88,54.4v-1.35l-6.43-6.43h-15.06l8.5,7.77h12.98,0ZM14.21,36.11s-.56-3.51,3.1-8.77H4.94s.53,1.44,9.27,8.77M3.49,55.4c-2.21,9.67,5.94,16.58,5.94,16.58,9.39-6.22,9.26-12.02,9.26-12.02-6.35,1.66-9.12,9.54-9.12,9.54.42-8.71-6.08-14.1-6.08-14.1M10.78,59.88c1.92-8.5-3.54-14.94-3.54-14.94-3.86,9.14,2.97,17.36,2.97,17.36,10.33-4.49,11.21-10.23,11.21-10.23-6.55.53-10.64,7.8-10.64,7.8M11.64,63.94c0-.54-.44-.99-.99-.99s-.99.45-.99.99.44.99.99.99.99-.44.99-.99M62.02,113.79h6.48s.43-2.82,2.26-2.82h26.92v-47.37l-2.67-2.82v46.94h-24.11s-3.24.28-5.78,3.38c0,0-1.97-2.96-6.19-3.24h-23.54v-46.66l-2.89,2.89v46.87h26.28s3.24.13,3.24,2.82M19.83,26.76c-6.75,7.27-3.15,17.33-3.15,17.33,11.25-.69,14.03-5.78,14.03-5.78-6.34-1.74-12.66,3.69-12.66,3.69,4.71-7.33,1.78-15.24,1.78-15.24M51.57,90.8l-.24-1.64h-.03l-.23,1.64-.46,2.88h1.51l-.54-2.88h0ZM113.76,111.18c1.64-1.02,3.2-2.4,4.49-4.3,0,0-3.56-.47-7.73.94l3.24,3.35ZM120.61,68.2s-2.94-7.81-9.34-9.32c0,0,0,5.81,9.54,11.81,0,0,7.99-7.1,5.55-16.72,0,0-6.37,5.55-5.75,14.24M108.64,91.51s-3.73,4.45-.28,15.17c0,0,10.68-.31,15-9.24,0,0-8.44.15-13.55,7.21,0,0,2.76-7.88-1.16-13.15M120.36,77.88s-1.55-8.21-7.58-10.8c0,0-1.01,5.72,7.35,13.28,0,0,9.1-5.6,8.37-15.5,0,0-7.23,4.35-8.13,13.02M112.83,75.42s-1.98,5.46,4.93,14.36c0,0,9.93-3.94,10.93-13.82,0,0-7.88,3.03-10.26,11.41,0,0-.11-8.35-5.6-11.95M119.15,82.75c.54,0,.99-.45.99-.99s-.44-.98-.99-.98-.99.44-.99.98.44.99.99.99M113.39,99.6c0-.54-.43-.99-.98-.99s-.99.44-.99.99.44.99.99.99.98-.44.98-.99M30.16,40.94h0c-.39.31-3.13,2.81-7.3,3.32l1.42,1.33,14.92-.07-4.63-4.63h0l-2.34-2.35s-1.66,2.12-2.08,2.39M87.85,89.22h-.03l-.23,1.64-.46,2.89h1.51l-.55-2.89-.24-1.64h0ZM56.74,76.29c0-.78-.37-1.41-1.45-1.35h-.29v2.89l.38.02c.97,0,1.36-.66,1.36-1.55M65.95,71.57v36.76s2.08-2.07,4.98-2.07h22.8v-45.6h-12.3s-3.5,10.75-15.48,10.91M68.7,73.24h2.14v8.83h2.24v2.01h-4.38v-10.83ZM75.65,97.28l-.51-7.81h-.03l-.34,2.67-.92,5.14h-1.65l-1.05-5.19-.36-2.42v-.2h-.03l-.32,7.81h-2.3l.95-10.84h2.82l1.05,6.4h.02l.86-6.4h2.88l1.13,10.84h-2.2ZM89.36,97.28l-.4-1.83h-2.17l-.39,1.83h-2.12l2.51-10.84h2.26l2.6,10.84h-2.29,0ZM82.84,73.24h2.41l.62,1.51c.18.53.4,1.09.51,1.65h.03c.12-.56.29-1.1.49-1.65l.65-1.51h2.31l-2.31,5.25,2.49,5.59h-2.49l-.69-1.72c-.2-.55-.34-1.08-.48-1.62h-.02c-.16.54-.29,1.07-.47,1.62l-.64,1.72h-2.41l2.3-5.59-2.3-5.25h0ZM83.42,86.44v2.01h-2.17v2.35h1.92v2.02h-1.92v2.44h2.2v2.01h-4.34v-10.84h4.31ZM77.91,82.31c1.05,0,1.05-.79,1.06-1.59v-7.47h2.14v7.9c0,1.15-.13,3.1-3.22,3.1-2,0-3.19-.93-3.19-2.96v-8.05h2.14v7.01c0,.82-.1,2.05,1.07,2.05M36.83,34.57s-.97,1.41-4.66,2.21l4.66,4.32s0-6.53,0-6.53ZM48.67,53.44c0,11.47,7.19,16.77,16.06,16.77s16.08-5.28,16.08-16.77V20.74h-32.13s0,21.24,0,32.7M56.42,30.27v-4.84h15.06v6.91h4.97v4.97h-4.83v2.22h4.83v5.39h-4.83v16.17h-4.15l-5.74-5.74-5.25,5.25-3.8-3.8,8.7-8.71,4.49,4.49v-22.32h-9.47ZM34.94,55.61l3.84,3.38h8.66c-.42-.69-.28-3.31-.28-3.31,0,0-12.21-.07-12.21-.07ZM104.57,98.85s-.7.73-.93,1.85l2.08,2.16c-.12-1.35-.46-2.72-1.15-4.01M22.73,107.69c3.2-10.8-.64-15.16-.64-15.16-3.8,5.35-.86,13.16-.86,13.16-5.28-6.94-13.72-6.89-13.72-6.89,4.52,8.83,15.21,8.88,15.21,8.88M22.2,36.09c11.2,1.28,14.81-3.26,14.81-3.26-5.93-2.82-13.11,1.44-13.11,1.44,5.92-6.4,4.41-14.7,4.41-14.7-7.91,5.99-6.11,16.52-6.11,16.52M45.63,115.28c.53,6.56,7.8,10.64,7.8,10.64-8.5-1.92-14.94,3.54-14.94,3.54,9.15,3.86,17.37-2.97,17.37-2.97-4.49-10.34-10.23-11.21-10.23-11.21M17.11,99.77c5.03-10.08,2.01-15.03,2.01-15.03-4.68,4.61-3.13,12.82-3.13,12.82-4-7.75-12.32-9.17-12.32-9.17,2.93,9.48,13.44,11.39,13.44,11.39M39.69,112h-1.4c-.08,6.18,5.88,11.06,5.88,11.06-8.04-3.37-15.33.89-15.33.89,8.34,5.39,17.62.09,17.62.09-1.81-7.53-4.98-10.75-6.78-12.04M18.95,116.68s1.53-.91,3.76-1.24l-2.47-.59-.24.31c.13-.2.24-.31.24-.31l-10.94,11.51s-1.24,1.8-.07,2.97c0,0,1.1.9,2.63-.13l10.66-9.32c-1.08-.56-3.43-2.52-3.56-3.2M12.94,91c6.7-9.06,4.58-14.46,4.58-14.46-5.41,3.73-5.31,12.08-5.31,12.08-2.59-8.32-10.53-11.17-10.53-11.17,1.23,9.86,11.26,13.55,11.26,13.55M18.56,26.18L5.6,13.22s-5.42,3.89-1.21,12.96h14.16ZM24.41,21.46l-7.62-7.69c-4.72-4.71-10.31-1.6-10.31-1.6l15.01,14.94c1-3.83,2.93-5.64,2.93-5.64M10.38,83.02c0,.54.44.99.99.99s.98-.44.98-.99-.43-.99-.98-.99-.99.44-.99.99M10.35,81.65c8.17-7.76,7.03-13.45,7.03-13.45-5.97,2.74-7.33,10.98-7.33,10.98-1.1-8.65-8.44-12.83-8.44-12.83-.5,9.92,8.73,15.3,8.73,15.3M17.53,100.73c0,.54.44.99.99.99s.99-.44.99-.99-.44-.99-.99-.99-.99.44-.99.99M99.94,115.1c.54,0,.99-.44.99-.99s-.44-.99-.99-.99-.99.44-.99.99.44.99.99.99M105.18,113.82l-3.46-2.82c.07.88.19,1.81.35,2.81,0,0,1.25.15,3.12.01M114.87,96.39s1.35-8.24-3.43-12.74c0,0-2.9,5.03,2.36,14.98,0,0,10.47-2.15,13.17-11.7,0,0-8.29,1.62-12.1,9.45M49.18,123.88c0-.54-.44-.99-.99-.99s-.99.44-.99.99.44.99.99.99.99-.44.99-.99M95.79,117.94s2.14-2.56,3.18-6.16l-4-.06c-.64,1.96-1.11,4.46-1.23,7.63,0,0,8.65,2.87,15.58-2.14l-2.67-2.15c-2.96-.17-7.01.28-10.86,2.88M98.71,101.97v5.25l23.49,19.48h4.69l-23.91-24.74h-4.28ZM64.29,124.63v2.45c-1.13-1.78-5.56-8.26-10.56-8.58,0,0,1.7,5.78,9.19,9.19,0,0-9.4.62-13.23,5.76,0,0,8.19.74,14.6-5.63v4h2.49v-7.19h-2.49ZM68.44,127.68c7.46-3.45,9.12-9.26,9.12-9.26-5.8.41-10.78,9.12-10.78,9.12,6.49,6.63,14.92,5.8,14.92,5.8-3.87-5.12-13.26-5.67-13.26-5.67M78.09,125.63s7.18-4.26,7.55-10.82c0,0-5.72,1.01-9.97,11.45,0,0,8.37,6.63,17.43,2.56,0,0-6.56-5.31-15.02-3.2M87.27,122.55s5.58-4.79,5.63-10.77l-1.99.08c-1.8,1.58-4.44,4.93-5.9,11.73,0,0,9.41,5.07,17.6-.5,0,0-7.38-4.09-15.34-.54M82.33,123.5c0,.54.44.99.99.99s.99-.44.99-.99-.44-.99-.99-.99-.99.44-.99.99M117.14,51.69s5.08-9.4-.5-17.61c0,0-4.08,7.38-.53,15.35,0,0-5.44-6.33-11.96-5.56,0,0,1.98,5.46,13,7.83M93.25,29.71l2.98-3.09c-2.54-.59-7.31-1.44-11.17,1.44,0,0,1.98,2.25,8.18,1.65M113.08,45.65c.54,0,.99-.44.99-.99s-.44-.99-.99-.99-.99.45-.99.99.44.99.99.99M119.81,61.02s6.64-8.38,2.56-17.43c0,0-5.31,6.57-3.19,15.03,0,0-4.25-7.19-10.82-7.56,0,0,1.01,5.72,11.45,9.97M105.47,13.83c3.1,1.54,5.61-.07,5.61-.07,3.46-1.7,5.96.65,5.96.65,2.41,1.89,2.02,4.36,2.02,4.36,0,1.9-.55,2.03-.55,2.03-1.15.79-.86-.54-.86-.54.03-.02.26-.94.26-.94.45-4.29-3.4-4.91-3.4-4.91-4.09-.72-5.11,3.06-5.11,3.06-.26,1.04-.28,1.96-.17,2.78l-5.11-5.11.24,4.32,11.4,11.4h4.08l-4.14-4.14c2.19.69,4.1.76,4.1.76,5.82-.36,6.43-5.93,6.43-5.93,1.54-5.82-3.98-10.52-3.98-10.52-3.68-3.16-9.24-3.42-9.24-3.42-7.91-.92-10.72-5.97-10.72-5.97-.92,2.3-.69,5.7-.69,5.7.53,5.25,3.86,6.47,3.86,6.47M118.41,62.64c0,.54.44.99.99.99s.99-.44.99-.99-.45-.99-.99-.99-.99.44-.99.99M96.81,25.86l2.41-2.44c-1.02-3.45-3.1-7.6-8.22-10.08,0,0-.21,7.37,5.81,12.52M102.86,93.96h-4.15v5.25h4.15v-5.25ZM106.08,41.93c1.83.52,4.08.91,6.83,1.02,0,0,1.25-3.72.71-8.23l-3.59,3.44c.39.91.88,1.83,1.49,2.74,0,0-.99-.81-2.58-1.7l-2.85,2.73h0ZM27.32,30.72c0,.54.44.99.99.99s.99-.44.99-.99-.44-.99-.99-.99-.99.44-.99.99M114.04,31.91l-10.64-10.64-9.54,10.36,10.23,10.09,9.95-9.81h0ZM91.45,32.25l-2.14,2.56,11.61,11.61,2.35-2.35-11.81-11.82ZM102.65,68.25h-4.15v5.25h4.15v-5.25ZM52.98,18.11s3.26,2.15,8.99-1.79c0,0-7.09-2.91-8.99,1.79M89.95,21.83s-3.23-.97-7.3.41v3.72c2.47-.05,4.99-.65,9.54-3.05,0,0-2.15-10.47-11.7-13.16,0,0,1.61,8.28,9.45,12.09M47.16,26.45l.08-3.61c-4.02-1.18-8.09-.41-8.09-.41,7.74-4,9.16-12.32,9.16-12.32-9.48,2.92-11.39,13.44-11.39,13.44,4.38,2.18,7.78,2.85,10.23,2.9M44.18,28.54c-5.36-3.81-13.17-.86-13.17-.86,6.94-5.28,6.89-13.72,6.89-13.72-8.83,4.53-8.88,15.21-8.88,15.21,10.8,3.21,15.16-.63,15.16-.63M43.56,20.62c0,.54.44.99.99.99s.99-.44.99-.99-.44-.99-.99-.99-.99.44-.99.99M45.95,19.58l7.43-.1c-2.31-1.39-4.84-1.34-4.84-1.34,8.32-2.59,10.69-10.01,10.69-10.01-9.84,1.23-13.55,11.26-13.55,11.26q.13.1.26.2M85.63,20.08c0-.54-.43-.99-.98-.99s-.99.44-.99.99.44.99.99.99.98-.44.98-.99M80.41,18.13s-2.53-.05-4.84,1.34l7.43.1c.13-.1.13-.1.26-.2,0,0-3.7-10.03-13.55-11.26,0,0,2.38,7.42,10.69,10.01M64.44,16.99c.73,0,1.32-.59,1.32-1.32s-.59-1.32-1.32-1.32-1.32.59-1.32,1.32.59,1.32,1.32,1.32M75.97,17.68c-2.08-4.63-9.05-1.45-9.05-1.45,5.88,3.73,9.05,1.45,9.05,1.45" inkscape:connector-curvature="0"/>
    </g>
  </g>
</svg>