<svg version="1.0" xmlns="http://www.w3.org/2000/svg" width="6428" height="6666.667" viewBox="0 0 4821 5000"><g fill="#dddddd"><path d="M3814.6 14.7c-19.2 68.8-26.7 156.5-18.1 213.3 7.3 49 18 85.2 35.4 120 8.9 17.9 16 29.2 30.5 48.5 14.8 19.7 18.6 23.5 41.5 40.7 20.2 15.3 25.7 18.3 55.5 30.3 31.4 12.6 48.8 15.9 82.6 15.9 42.7 0 59.5-3.6 101-21.6 28.4-12.3 40.8-17.3 50.1-20.1 18.2-5.6 20.6-5.9 52.4-6.4l30-.4 17.5 4.4c21.1 5.4 33.6 9.9 49.1 17.8 53 26.9 92.5 73.7 108.3 128.2 3.4 11.8 7.6 36.4 7.6 44.7 0 3.8-1 13.1-2.1 20.7-1.2 8.1-2.2 19.8-2.4 28.3-.1 8-.8 16.5-1.4 19-3.7 13.2-14.9 26.9-26.6 32.5-7.2 3.3-17.5 5.6-19.3 4.2-.7-.5-2.2-4.1-3.3-8-3-9.8-2.3-18.2 3.5-37.7 5.8-20.1 9-38.2 8.3-47.6-.9-13-5.9-41.7-8.8-51.6-3.6-12-12.5-29.8-21.7-43.8-20.2-30.6-58.6-54.5-102.1-63.7-11.4-2.4-14.7-2.7-34.6-2.7-24.3-.1-35.4 1.4-52.5 7.3-25 8.4-38.1 16.5-57.4 35.1-26.8 25.9-43.7 55.5-49.6 87.2-1.2 6.2-2.8 12.8-3.6 14.7-1.2 2.8-1.5 9.7-1.6 34.1 0 16.8-.3 33.4-.7 37l-.7 6.5-89.4-89c-49.2-49-92.6-91.9-96.4-95.5l-6.8-6.5.6 11.4c.4 6.2 1.6 18.4 2.8 27 1.7 12.6 2.2 21 2.3 44.1.1 23.4.5 31.4 2.4 44.7 1.2 8.9 2.3 20.7 2.5 26.3l.2 10.1 214 214c117.6 117.7 215.3 214.8 216.9 215.6 3.4 1.9 6 1.9 97 1.5l57-.2-72.1-72.3c-61.7-61.7-78.4-79.2-78.4-82.1 0-.2 3 .4 6.8 1.5 56.8 16.8 119.1 26.5 154.4 24 56.5-4.1 106.4-24.6 151.6-62.5 16.8-14.2 39-44.7 54.2-74.7 10.2-20.2 13.6-28.4 17.9-43.1 5.3-18.2 13.2-53.9 14.1-63.9.5-5.2 1.7-11.5 2.7-14 1.5-3.8 1.8-8.5 2.1-34.4.3-30.4-.6-48-3.4-63-5-26.2-16.5-64.2-26.4-87-23.7-54.4-61.3-109.6-104.9-153.8-38-38.6-57-53-102.1-77.3-47.9-25.7-97-44.2-157.5-59.3-32.1-8-51.7-11.3-99.5-17.1-41.8-5-57.6-7.3-76.1-11.1-42.8-8.6-102.2-27.2-129.4-40.4-7.1-3.5-15.9-7.6-19.5-9-29.2-12-69.1-36.8-102.6-63.7-7.1-5.7-16.5-13.3-20.9-16.8-17.8-14.3-27.2-24-48.6-50.8-18.5-23-27.1-33.2-27.8-33.2-.4 0-2.4 6.2-4.5 13.7zM2168 245.6c-70.5 15.4-97.9 23.4-128.5 37.6-7.1 3.3-15.7 7-19 8.1-10.2 3.6-35 16.6-56.7 29.6-71.6 43-136.8 103.1-192.7 177.6-23.8 31.7-44.5 63.6-58.9 90.9-4.7 8.9-10.3 18.8-12.5 22-3.2 4.8-24.5 52.2-27.1 60.3-1.4 4.2 4.7 4.4 136.9 4 108.1-.4 125.2-.6 133.5-2 5.2-.9 10-1.6 10.6-1.7.6 0 1.9 1.8 2.9 4 2.1 4.6 3.5 5.2 3.5 1.4 0-5.1-8.7-10.9-32.1-21.3-27-12.1-56.1-21-85.9-26.5-14.7-2.7-39-5.6-46.9-5.6-2.7 0-5.6-.3-6.5-.6-2.1-.8-2.1-4.4-.1-4.4 2.9 0 28-8.8 44-15.5 19.5-8.1 65.6-30.6 84-41 15.9-9 36.1-22.4 53.5-35.5 24.5-18.5 72.6-60 79.8-68.8 2-2.5 12-14.1 22.1-25.7 20.5-23.4 24.8-28.9 40.8-52 29.5-42.7 50.5-81 68.4-124.9 2.7-6.6 4.9-12.3 4.9-12.8 0-1.1-.6-1-18 2.8zm418-2.4c0 2.8 7 24.1 10.5 31.9 27.8 61.7 69.3 123.5 114.2 170 20.3 21 53.6 53.3 63.8 61.8 52.8 44 118.4 80.7 191.6 107.3 9.5 3.4 16.9 6.6 16.9 7.3 0 1.6-4.5 2.5-11.9 2.5-13.8 0-39.5 4.2-68.1 11.1-21.3 5.1-28.2 7.4-53 17.6-22 9-27 11.6-33.9 17.1l-4.4 3.6 2.9.9c1.7.6 60.5 1.2 141.8 1.4l138.9.5-.7-7.2c-1-11-4.5-19.9-18.5-47.4-24.4-47.9-46.5-82.8-81.9-129.6-24.4-32.1-35.7-45.2-58.3-67.7-25.5-25.2-32.3-31.4-53.9-49.5-30.5-25.6-56.9-44.6-75.1-54.1-7-3.6-17.5-9.5-23.5-13.2-28.4-17.4-94.7-42.2-145.4-54.4-19.3-4.7-52-10.9-52-9.9z"/><path d="M2993 304.8c0 2.1 14.1 52.3 17.1 60.8 1.7 4.9 6.3 16.8 10.1 26.4 54.3 134.7 132.7 238.5 237.9 314.6 23.6 17.2 46.7 31.5 71 44.3l13.4 7.1h-10.1c-5.6 0-12.6-.5-15.5-1-22-4.2-77.4-6.3-108.1-4.1-29.6 2.2-62.7 7.3-91.7 14.2-14.1 3.3-40.2 10.8-41.3 11.8-.4.3-.8 31.5-1.1 69.2l-.3 68.6 19.5.7c19.3.7 33.6-.2 41.1-2.4 1.9-.6 8.5-1.8 14.5-2.6 33.9-4.5 71.8-14.3 111-28.9 48.7-18.1 74.5-29.3 125.5-54.5 20.6-10.3 40.6-19.9 44.3-21.5 7.9-3.3 7.7-.6 1.5-23.5-5.9-22-16.8-53.4-29-84-16.6-41.5-26.6-62.8-38.6-82.2-2.2-3.5-7-11.9-10.7-18.8-18.1-33.3-42.1-68.6-65.2-95.7-4.3-5.1-13.4-15.8-20.3-24-22.7-26.8-39.7-43.3-66.2-64.6-23.4-18.7-47-35-80.8-56-25.3-15.7-62-31.8-115-50.3-5.2-1.8-10.3-3.6-11.2-3.9-1-.4-1.8-.3-1.8.3zM1762.5 322c-3.8 1-14.2 4.8-23 8.4-8.8 3.5-18.8 7.3-22.1 8.5-12.6 4.2-44.6 20.4-67.9 34.4-50.2 30-99.1 70.4-137.5 113.3-37.8 42.3-77.4 100.8-105.5 155.9-25 49.3-48.3 109.7-61 158.9-3.2 12.4-3.6 28.3-.7 29.3 6.3 2.2 24 10.1 44.2 19.8 67.7 32.5 147.7 59.6 215 72.9 44.4 8.7 77.4 12.8 104.5 13l20 .1.3-66.8.2-66.8-3.4-1.4c-5.8-2.4-29.1-8.1-49.1-11.9-51.4-9.8-79.3-12-146.5-11.8-41.9.1-47.7.3-58.5 2.2-13.4 2.3-37.5 3.8-37.5 2.4 0-.5 5.7-4.5 12.8-8.8 38.4-23.9 73.5-48.5 91.6-64.2 4.4-3.8 13.1-11.1 19.5-16.3 14.6-11.7 31.9-28.8 41.9-41.1 4.2-5.2 11.5-14 16.3-19.5 34.5-40.2 66.9-88.4 92-137 22-42.7 42.6-96.4 59-154.5 2.7-9.6 5.2-18.3 5.5-19.3.7-2.2-1-2.1-10.1.3zM320 358.6c-1.4.3-5.1.9-8.4 1.5-3.2.6-12.2 1.8-20 2.8-9.8 1.2-21 3.7-36.7 7.9-28.5 7.8-40.5 11.9-54.6 18.9-9.1 4.4-11.3 6-11.3 7.7 0 1.5 24.7 26.7 85.1 86.6 46.9 46.5 173.5 172.8 281.5 280.6l196.3 196.2 2.5-3.8c3.7-5.6 5.4-10.2 8.6-23 1.5-6.3 4.2-15.1 6-19.5 26.2-65.9 57.2-121.8 83.7-150.6 4-4.3 7.9-9.2 8.8-11l1.7-3.1-7.9-8.1c-4.3-4.5-29.4-30.3-55.8-57.2-26.4-27-55.9-57.8-65.7-68.5-26.9-29.7-160.2-162-177.8-176.5-27-22.3-50.6-37.6-78.5-51.1-33.1-15.9-64.8-24.6-105-28.9-12.4-1.3-45.8-1.9-52.5-.9zm-182.7 88.1c-8.4 8.7-30.9 36.9-37.9 47.5-6.2 9.2-21.8 39.7-28.7 55.9-9.8 22.9-15 41.3-18.7 65.7-1.1 7.5-3 17.5-4.2 22.2-2.1 7.8-2.2 10.9-2.2 39 0 32 .9 45.2 5 73.8 7.8 54.5 25.5 113.3 49.9 165.9l4.8 10.3h534l-6.3-6.8c-3.5-3.7-112.7-113.2-242.7-243.5L153.8 440h-5c-4.9 0-5.2.2-11.5 6.7zm3256.3-2c-1.1 2.7-.8 36.1.4 46.3 3 26.8 10.2 66.4 16.6 92.5 14.5 58.3 42 127 69.3 173.5 31 52.5 59.4 88.5 107 135.2 20.6 20.4 21.1 20.8 25.2 20.8 4.2 0 4.5-.3 30.2-25.8 24.5-24.3 55-57.1 57.5-61.9 2.2-4 1.2-8.9-6.2-30.9-27.6-81.8-65.7-151.7-112.7-206.9-5.2-6.1-12.4-14.8-16-19.5-7.4-9.4-19.3-21.3-28.4-28.1-3.3-2.4-11.6-9.4-18.5-15.4-33.8-29.5-70.3-54.3-108.2-73.5-13.3-6.8-15.7-7.7-16.2-6.3z"/><path d="M1365.5 470.4c-5.5 3.4-18.7 11.5-29.3 18-23.1 14.1-36.9 23.9-56.9 40.2-104 85.2-178.5 206.5-214.2 349-15.5 61.8-21.5 98.4-25.6 156l-.5 8.2 3.7 1c2.1.5 17.4 4.6 34.1 9.1 28.4 7.6 36.5 9.6 56.7 13.6 4.4.8 10.7 2.3 14 3.1 7.9 2 66.7 11.7 87 14.4 8.8 1.1 25.2 2.7 36.5 3.5 11.3.9 22.8 2 25.5 2.6 2.8.5 16.9 1.2 31.5 1.6 20.8.4 29.6.2 41-1.1 8-.8 23.7-2.3 35-3.1 26-2 43.2-4.1 54-6.6 4.7-1.1 12.8-2.9 18-3.9 21.7-4.4 61.6-16.6 80.9-24.7 19.8-8.2 40.9-20.6 52.9-30.9l4.4-3.7-13.4-7.9c-28.4-16.9-68.5-35.3-94.8-43.6-22.3-7.1-46.9-12.4-63.5-13.7-4.4-.4-11.4-1.6-15.5-2.7-5.9-1.6-12.2-2.2-29.5-2.8-12.1-.4-26.4-1.4-31.8-2-7.8-1-12.7-1-23-.1-7.3.6-21.5 1.6-31.7 2.1-21.4 1.2-39.5 3.1-60 6.6-8 1.3-19.2 3.1-25 4-13.5 2-62.4 13.5-76 18-10.8 3.5-26 6.7-26 5.5 0-1.5 18.8-19 27-25.1 15.7-11.9 39.8-35.8 59.2-59 13.1-15.5 40.4-52.3 52.4-70.5 35.9-54.5 64-115.1 81.8-176.1 6.1-20.9 18.6-70.9 21.1-84.4 6.3-34.8 13.4-101.1 10.8-101-.5.1-5.3 2.9-10.8 6.4zM2370 481.2c-8.2 2.9-18.8 10.4-24.2 17.1-2.3 2.9-5.7 8.6-7.7 12.7-3.5 7.2-3.6 7.9-3.6 18.5 0 10.3.2 11.5 3.5 19 4.6 10.6 11.9 17.9 25.8 25.9 10.2 5.8 10.5 5.9 18 5.8 14.5 0 29.5-7.6 39.8-20.1 9.3-11.2 10.7-15.1 11.2-31.2l.5-13.8-4.9-7.3c-7.7-11.5-15.8-18.9-26.1-23.9-7.9-3.9-9.7-4.3-17.3-4.6-6.9-.3-9.8.1-15 1.9zm271 30.4c-43.8 2.9-81.7 10.7-129.2 26.5-19.9 6.7-24.8 8.7-29.2 12.3l-2.9 2.4 8.4 4.2c4.6 2.4 13.7 7.4 20.1 11.2 48.6 28.7 122.4 55.8 163.8 60.2 8.5 1 20.7 2.3 27 3.1 13.7 1.7 26.3 1.9 34.5.5 3.3-.6 11.6-1.9 18.5-3 22.6-3.4 43.2-9.6 60.3-18.2 8.9-4.4 8.7-3.5 3-15.6-20.5-43.5-70.2-76.1-125.3-82.1-10.6-1.2-40.4-2.1-49-1.5zm-556.5 11.3c-8.1 1-36.3 7.7-45 10.8-7.2 2.6-21.2 9.7-32.5 16.6-17.9 11-27.2 20.2-40.5 40.2-7.7 11.8-18 29.4-17.4 29.9 7.6 6 21.1 12.5 33.2 16 16.7 4.8 29.1 6 66.2 6 31.2.1 35-.1 46.5-2.2 22.5-4.1 54.2-12.7 64.8-17.6 5.3-2.4 14.7-6.3 20.7-8.7 14.1-5.4 36.6-16.1 48.6-23.1 5.2-3.1 17.1-9.9 26.4-15.3 16.3-9.3 28.1-17.2 31.8-21.3 1.6-1.8 1.4-1.9-6.1-3.6-4.2-1-14.9-4.2-23.7-7.1-17.5-5.9-25.5-7.8-63.5-15.6l-25.5-5.3-39-.2c-21.4-.1-41.7.1-45 .5zm1041.6 147.4c-4.4 4.9-8.6 10.8-10.4 14.5-2.7 5.7-2.9 7.1-2.5 14 1.2 19.4 14.6 31.9 37.9 35.2l7.1 1 6.2-4.4c3.3-2.4 9.6-7.5 14-11.3l7.9-6.8-.6-12c-.8-19.3-6.1-30.6-16.9-35.9-4.9-2.5-6-2.6-20.2-2.5h-15.1l-7.4 8.2z"/><path d="M1004.9 685.3c-14.6 8.3-22.5 15.5-61.1 55.2-34 35-55.1 63.6-84.5 114.5-16.8 29.1-34.2 70.2-48.6 114.6-17.4 53.7-27.3 103.2-32.2 162.4-.8 9.6-2.2 22.4-3 28.5-2.3 15.8-1.6 82.6.9 96.5.9 5.2 2 17.6 2.4 27.4l.7 18 3 .8c8.8 2.4 22.1 4 40.5 4.8 11.3.5 25 1.6 30.5 2.6 15.2 2.5 119.3 3.3 132.7 1 5.1-.9 18.8-2.3 30.3-3.1 20.4-1.4 27.7-2.4 66.5-8.6 58.9-9.4 118.6-28.2 167-52.4 19.7-9.9 51-29.6 66.5-42 8.1-6.4 26.7-24.6 26-25.4-.5-.5-5.7-2.3-36.5-13-66-22.8-130.7-27.9-210-16.5-58.8 8.4-133.6 29.6-180.5 51.1-6.6 3-15.6 7-20 8.8-4.4 1.8-16.3 7.2-26.4 11.9-10.2 4.7-18.6 8.4-18.8 8.2-.3-.2 3-4.4 7.2-9.3 35.4-41 66.7-87.8 90.1-134.3 11-22 16.6-35 24.4-56.5 20.9-58 32.8-104.7 37.1-145 .9-9 1.8-12.9 3.4-15.5 2-3.1 2.3-5.4 2.8-21 .3-9.6 1.5-25.4 2.7-35 2.5-22 2.8-63.8.5-83.1-3-26.1-3.4-30.6-3.7-40.2-.1-6-.6-9.7-1.3-9.7-.6 0-4.4 1.9-8.6 4.3zm599.4 5.9l-10.3 10.3v13.7c0 7.5.5 14.9 1 16.4.6 1.5 5.6 7.2 11.2 12.7l10.1 9.9 10.2-.4c8.7-.4 11.1-.9 16.8-3.6 8.5-3.9 16.5-11.5 20.7-19.4l3.3-6.2-1.1-8c-2-13.7-9.4-25.9-19.7-32.4-3.7-2.4-5.1-2.6-18-3l-14-.4-10.2 10.4zm182.7 683.5c0 644.5 0 653 2 670.8 11.3 102.7 33.1 183.5 68 252.5 32.6 64.2 74.9 118.4 126.8 162.4 30.2 25.5 45.5 36.5 72.7 52.5 31.1 18.3 89.6 45 109.9 50.2 6.1 1.5 17.6 4.8 25.6 7.4 21.9 6.9 30.5 9.1 54 13.5 44.9 8.4 64.2 10.6 104 12.1 56.4 2.1 109.8.3 152.5-5.2 65.9-8.5 135.1-28.9 193-56.8 142.3-68.7 251.1-209 285-367.6 2-9.4 4.5-20.2 5.5-24 3.1-11.3 6.7-32.3 10-59 1.7-13.7 3.6-26.7 4.1-29 .6-2.2 1.4-22.7 1.9-45.5 1-50.5 1.5-1280.4.5-1284.3l-.7-2.7H1787v652.7zm442.5-475.3c16-.1 49.7-.1 75-.2 25.3 0 49.2 0 53-.1 7.6 0 164.5.2 176 .3 3.9.1 31.2-.3 60.7-.7l53.7-.9.6 2.4c1.9 8.1 2.3 28.6 1.8 98.9-.3 43.1-.2 97.6.2 121.1l.7 42.8h186.5l.6 21.7c.4 12 .7 54.1.7 93.5v71.8h-182.7l-.6 15.2c-.4 8.3-.7 27.2-.7 42v26.8h182.7l.6 36.7c.9 47.3.9 144.8 0 158.6l-.6 10.7-91.1.2-91.1.3-.3 306.8-.2 306.9-77.4-.4-77.3-.3-9.8-9c-5.4-5-54.8-54-109.7-109l-99.8-100-98.8 98.8c-54.3 54.3-99.2 98.7-99.7 98.7-.9 0-121.4-120.4-137.8-137.6l-5.8-6.1 162.3-162.2c89.3-89.1 163.4-162.8 164.6-163.7 2.1-1.4 2.5-1.4 4.9.1 1.4 1 39.3 38.2 84.2 82.9l81.6 81.1.6-104.5c.9-152.3 1-449.3.2-604.8l-.6-135.2H2080V900.2l9.3-.6c5-.4 11-.8 13.2-1 2.2-.2 25.2-.1 51 .2 25.9.4 60.1.7 76 .6zm1607.9-129.5c-13.7 14.1-28.1 29.4-31.8 34.1-3.7 4.7-16.3 18.2-28 30s-24.9 26.2-29.3 32c-4.4 5.8-16.4 18.8-26.5 29-10.1 10.2-21.9 23-26.2 28.5-4.4 5.5-18.1 20.3-30.6 33-12.5 12.6-25.6 26.8-29.1 31.5-3.5 4.7-15.6 17.9-26.9 29.5-11.3 11.5-24.9 26.4-30.2 33-5.2 6.6-17.2 19.4-26.5 28.5-9.3 9.1-21.8 22.5-27.6 29.7-5.9 7.3-13.5 16.2-16.9 19.9l-6.2 6.5 119.5 119.6c73.3 73.3 129.6 128.9 145.9 143.8 30.8 28.2 71 67.1 100.5 97.2 11.4 11.7 21.1 21.3 21.6 21.3s49.6-48.5 109.2-107.8c59.5-59.3 116.1-115.2 125.7-124.2 56.3-52.7 135.4-130.8 138.3-136.6l1.6-3-200.7-200.5-200.7-200.5-25.1 25.5zM3400 922.6c-24.5 2-34.1 3.1-57.5 6.5-29 4.2-50.4 9.4-76.7 18.5-33.6 11.7-66.7 28.8-92.1 47.6l-6.8 5 4.2 3.7c14.3 12.4 37.2 25.5 59.9 34.4 18.1 7 38.9 13.5 45.7 14.2 3.5.3 7.8 1.2 9.8 2 1.9.8 8.1 2.1 13.8 2.9 5.6.8 11.4 1.9 12.7 2.4 1.4.5 8.1 1.3 15 1.7 6.9.3 21.1 1.6 31.5 2.7 10.5 1.1 28.9 2.2 41 2.5 19.6.4 23.4.3 35-1.7 7.2-1.2 19.5-2.4 27.5-2.7l14.5-.5 8.3-8.2c14.1-13.7 45.3-46.6 53.6-56.6 4.4-5.2 15.2-16.9 24.2-26 13.8-14.1 22.4-24.4 22.4-27.1 0-.4-2.6-1-5.7-1.4-3.2-.3-11-1.7-17.3-3-6.3-1.3-14.2-2.6-17.5-3-3.3-.4-10.5-1.7-16-3-11.8-2.9-19.7-3.9-44.5-6-10.2-.9-23-2.3-28.5-3.1-9.5-1.5-45.9-2.7-56.5-1.8z"/><path d="M682.7 959.2c-3.7 5.1-9.4 12.4-12.8 16.3-42.2 48.6-78.3 113.9-100.7 182.5-13.2 40.4-21.4 76.5-28.3 125-2.1 14.5-2.3 19.7-2.6 82.5-.5 73.7-.6 70.5 6.2 119 6.1 43 14 79.7 23.5 109.2l4.2 13.3h4.2c6.2 0 46.6-3.6 67.1-6 59.6-6.8 126.1-19.8 177-34.5 18.1-5.2 71.1-23.8 86.3-30.2 39.8-16.9 85.4-42.7 116.7-66.1 29.5-22.1 61.8-54.2 78.2-77.8l2.2-3-12.7-3.2c-29.5-7.3-53.9-10.2-87.7-10.2-32 0-59.8 3.1-87.2 9.5-6 1.4-17.1 4-24.8 5.6-20.3 4.5-43.6 12.3-81.3 27.5-59.1 23.8-94.7 43.9-164.2 92.8-9.1 6.3-16.6 11.1-16.8 10.6-.6-1.6 7.3-17.2 14-28.1 22.7-36 46.6-95.7 60.4-150.2 5-20.1 11-48.9 11.9-57.2.4-3.9 1.6-9.3 2.6-12 1.3-3.5 1.9-7.6 1.9-13.8 0-4.9 1.2-19.3 2.7-32 2.4-20.8 2.7-26.7 2.8-56.7 0-28.8-.3-36.1-2.3-52-1.2-10.2-2.5-23.5-2.8-29.5-.6-11-9.2-64.3-13.9-86.3-4.3-19.8-11.6-43.8-15.8-51.8-1.4-2.6-1.4-2.6-8 6.8zM126 973.9c0 .6.4 1.2.9 1.6.5.3 5.7 6.7 11.4 14.3 8.8 11.5 19.9 23.2 70.3 73.6 54.8 54.8 63.8 63.4 105.4 100 57.9 51 86.2 75.7 112.5 98.1 11.6 9.8 24.8 21.3 29.5 25.5 8.8 7.9 15 12.5 21 15.5 3.8 2 3.8 1.9-.9-3.8-1.8-2.2-1.7-6.2.9-25.7 1.1-8 2.4-20.5 3-27.8 2.5-30.8 11.4-66.1 27.4-108.9 8.5-23 35.6-78.8 48.6-100.3 4.5-7.4 9.9-16.9 12.1-21.1 2.2-4.2 7.3-12.3 11.4-18 6.8-9.5 11.5-18.6 11.5-22.4 0-1.3-29.2-1.5-232.5-1.5-144.6 0-232.5.4-232.5.9zm881.7 90.1c-2.1.6-8.4 3.2-14 5.8-10.1 4.8-10.4 5-12.6 10.1-4.6 10.8-6.5 28.8-3.7 35.5 3.4 8.1 12.4 15.2 26.9 21l8.9 3.6 7.1-3.1c13.9-5.9 21.8-11.7 26.4-19.7 2.5-4.2 2.6-4.8 2-15.6-1.1-20.2-6.4-28.3-23-34.6-9.5-3.7-12.8-4.2-18-3zm2396.3 99.8c-2.5 3.1-17.8 21.6-34 41.2-16.2 19.5-32.3 38.9-35.7 43.1l-6.1 7.6 220.3 220.3 220.3 220.3 44.7-44.6 44.6-44.6-224.5-224.5C3510 1259.1 3408.9 1158 3408.7 1158c-.1.1-2.2 2.7-4.7 5.8zm959.2 67.5c-1.9 2.3-7 13.3-13.7 29.1-30.9 73.4-50.4 151.8-57.4 230.6-3.6 39.4-3.6 90.3 0 112.5 1 6.6 2.1 17.4 2.5 24 .6 12.6 3.8 31.1 10.6 61 6.9 30.8 12.2 48.3 28.7 94.5 2.2 6.3 4.1 13 4.1 14.8 0 3.2-.5 2.9-19.2-14.9-57.9-54.9-109.9-93.4-169.6-125.4-36.1-19.4-83.8-38.8-116.7-47.4-9.3-2.4-47.9-9.4-61-11-11.1-1.4-81.5-2-81.5-.7 0 2.2 12.8 25.2 20.4 36.6 31.7 47.6 78.5 91.2 144.1 134.2 29 19.1 62 36.9 90.5 48.8 6.9 2.9 20.2 8.6 29.5 12.7 60.6 26.7 108.8 41.9 206.7 65.2l3.7.9 8-19.3c32.5-77.5 53.5-148.1 60.6-204 .3-2.8 1.4-8.6 2.5-13 1-4.4 2.2-13.2 2.5-19.5.4-6.3 1.1-13.8 1.6-16.5 2.5-13 2.9-21.2 3-62.6.1-41 0-45.4-2-57.7-1.2-7.3-2.5-19.5-3.1-27.1-.6-9.3-2.1-19.3-4.4-29.8-1.9-8.7-4-18.7-4.6-22.3-2.6-14.8-11.5-47.6-17.2-63-17.7-48-37-87.4-58-118.5-8.9-13.1-9.4-13.7-10.6-12.2zm-3035.7 25.5c-5 3.7-13.9 10.7-20 15.5-9.3 7.5-14.1 10.4-31 18.7-35.6 17.5-62.3 27-97.5 34.9-7.3 1.7-13.7 3.6-14.1 4.2-1.9 3.1 18.9 25.4 40.1 42.9 6.9 5.7 22.9 20.5 35.5 33 14.3 14.1 26.8 25.5 33 30 6.7 4.9 16.3 13.8 28.9 26.7 12.4 12.7 21.5 21.1 26.4 24.3 4 2.8 7.8 5 8.3 5 .5 0 .9-48.4.9-121 0-66.6-.3-121-.8-121-.4 0-4.8 3-9.7 6.8z"/><path d="M4239.9 1262.4c-13.5 10.8-26.3 23-65.4 62.2-29.1 29.2-44.2 43.2-55.4 51-4.8 3.4-4.8 3.2.5 19.4 4.5 13.5 12 28.3 27.7 54.6 13.7 23 19.6 34 17.5 32.8-.7-.4-6.7-4.6-13.3-9.2-24.7-17.4-76.1-50.2-78.6-50.2-.4 0-12.4 11.4-26.7 25.3-14.3 13.9-32.4 30.8-40.3 37.4-19.3 16.2-30.9 27.9-34.2 34.5-3.8 7.6-3.6 8.4 2.3 9.1 2.7.3 13.4 2.6 23.7 5.1 24.5 5.8 55.5 12.1 71.8 14.6 7.2 1 14.6 2.4 16.5 3 1.9.5 9.8 1.5 17.5 2.1 7.7.5 17.1 1.7 21 2.5 3.8.9 15.8 1.9 26.5 2.4 13.6.6 21.2 1.3 25 2.5 4.2 1.4 9.5 1.8 23 1.9 16.8.1 17.7 0 22.5-2.4l5-2.5 2.2-13.5c1.2-7.4 4.3-21.8 6.8-32 2.9-12.1 6.1-29.3 9-49.5 2.5-17.1 4.8-31.7 5.2-32.5.3-.8.9-12.1 1.3-25 .6-16.5 1.3-25.6 2.5-30.5 2.2-9.3 3.1-35.8 1.6-50.5-.6-6.3-1.8-18-2.7-26-.9-8-1.6-21.4-1.7-29.7-.1-8.4-.2-15.3-.3-15.3 0 0-4.7 3.8-10.5 8.4zM1386 1419.7v126.8l111.8 111.5c61.4 61.4 118.7 117.7 127.2 125.1 8.5 7.5 33.1 30.9 54.5 51.9l39 38.3.3-124.6.2-124.6-165.6-165.3c-91.1-90.9-166-165.5-166.5-165.6-.5-.2-.9 50-.9 126.5zm-992-99.2c-30.6 63.5-49.3 132.2-56.5 207.9-4.2 44.6-4.2 113.6.1 121.7 1.4 2.7 1.9 7.1 2.4 21.9.5 13.2 1.1 19.7 2.3 22.5.8 2.2 2.3 9.4 3.2 16 5.2 37.9 16.9 84.5 34.5 137.5 8.8 26.4 12.5 35.9 25.6 66l11.6 26.7 12.7-2.4c62.8-11.7 151.9-42.7 218.6-75.8 76.5-38 127-71.6 167.9-111.4 13.5-13.3 31.6-33.6 31.6-35.5 0-3.8-6.7-11.1-19.1-20.7-7.4-5.7-22.3-19-33.2-29.6-11.1-10.9-20.6-19.3-21.6-19.3s-10.3 2.7-20.7 6.1c-39.6 12.8-86.8 33.3-107.1 46.5-4.5 2.9-11.7 7.2-16 9.6-17.7 9.7-67.6 46-93.8 68.3-8.2 7-26.8 24.6-41.2 39.1-19.3 19.4-27.5 27-31.3 28.9-2.9 1.5-5.4 2.4-5.6 2.2-.3-.3.9-2.8 2.5-5.6 3.1-5.3 19.5-55.1 25.1-76.4 3.9-14.8 10.8-51.2 12.1-63.7.5-5.2 1.9-15.8 3.1-23.5 2.1-13.2 2.2-16.9 2.2-67.5-.1-45.9-.3-55.1-1.8-65-1-6.3-2.2-16.5-2.6-22.5-.5-6.1-1.3-14.2-2-18-2.2-13.6-11.2-54.4-18.2-82.5-7.9-31.8-13.3-49.3-20.4-65.3-3.9-8.9-5.3-11.1-8.3-12.9-6.8-4.1-21.6-15.4-34.8-26.6-7.3-6.2-13.5-11.2-13.8-11.2-.3 0-3.7 6.5-7.5 14.5zm2906.9 43.2c-9.1 9.3-25.5 26.7-36.4 38.8-10.9 12.1-26 28.3-33.5 36-7.5 7.7-16.6 17.9-20.3 22.6-3.6 4.8-16.7 19-29 31.6-12.2 12.7-24.9 26.5-28.2 30.9-3.2 4.3-14.5 16.4-25 26.9-10.5 10.4-22.7 23.7-27.2 29.5-4.4 5.8-14.4 17.1-22.2 25.2l-14.2 14.7.1 226.3c0 246.9.4 231.4-5.6 264.3-3.1 16.9-6.3 31.4-11 49.8l-3.6 13.9 2.4 2.5 2.3 2.5 15.5-.8c8.5-.5 30.8-.9 49.5-.9s47.4-.1 63.7-.3l29.7-.2 234.9-235.1 234.8-235.2-47.1-47.1c-25.9-25.9-55.8-56.6-66.5-68.1-30.6-33-38.5-41-142.8-145.8-82.2-82.5-98.8-98.7-101.1-98.7-2.1 0-5.9 3.3-19.2 16.7zm-2146.6 44c-3.8 4.3-14.8 17.5-24.5 29.3-21.2 26-31.2 37.1-44.3 49.2-35.9 33-89.8 67.7-136.5 87.7-35.8 15.3-68.5 26-97.5 32.1-15.5 3.2-34.4 6-40.5 6-2.2 0-4 .3-4 .8 0 1.4 44.6 46 48.9 48.8l4.5 2.9 185-.1c189.8-.2 376.6-1.2 376.6-2.1 0-.3-2.6-3.6-5.7-7.2-6.3-7.2-247.7-249.2-252.3-252.9l-2.9-2.2-6.8 7.7zm3065.5 186.2c-7.2 2.4-11.7 5.2-16.2 10.1-7.3 8.1-10.6 17.8-10.6 31.1v8.7l9.8 10c11 11.3 10.7 11.2 28 11.2 7.5 0 11.3-.4 13.8-1.6 1.9-.9 7.5-5.9 12.4-11.1l9-9.5v-11c0-10.4-.2-11.3-3.1-16.9-3.9-7.3-13.2-16.2-20.2-19.4-7.4-3.4-15.7-4-22.9-1.6zm355 6.8c-19 25.6-36.6 54.3-52.7 86.3-19.6 38.8-30.6 65.1-43.2 103.3-13.5 40.7-22.2 76.4-29.1 119.4l-5.3 32.8v59.5c0 57 .1 60 2.2 72.5 1.3 7.1 2.6 17 2.9 22 .4 4.9 1.7 13.2 3 18.2 3.4 13.5 7.4 39.3 6 39.3-.2 0-5-6.6-10.6-14.6-52.2-74.6-102.7-127.8-167.8-176.8-29.4-22-54-36.2-100.6-57.6-31.4-14.4-57.3-21.7-104.8-29.5-11.7-1.9-21.8-3.5-22.5-3.5-2.7 0 6.1 28.3 14.5 46.1 8.9 19.1 22.6 41.2 46.1 74.4 19.7 27.9 65.5 73.4 109.8 109.2 65.7 53.1 118.2 83.6 239.4 139.1 11.1 5.1 16.8 7.2 19.6 7.2 3.8 0 4.4-.4 9.5-6.8 7.3-9 8.6-11 29.6-45.9 32.7-54.2 53.2-97.5 71.6-151.3 16.2-47.2 25.9-87.3 33.1-137.2 5.1-36 5.9-47.1 5.9-86.3.1-35-.1-38.1-2.7-58-9.1-68.1-20.5-112.3-40.8-158.3-2.9-6.7-5.6-12.2-6-12.2-.3 0-3.5 3.9-7.1 8.7z"/><path d="M558.1 1637.1c-7.8 1.3-13.5 4.2-18.4 9.3-14.6 15-13.9 38.8 1.5 53.1 7.4 6.9 12.5 8.5 26.6 8.5h10.4l8.4-5c7.8-4.8 8.4-5.4 10.4-10.8 8.1-21.3 2.6-42.6-13.9-53.1-4.3-2.8-5.5-3.1-12.2-3-4.1.1-9.8.5-12.8 1zm-356.4 35.6c-13.7 41-21.8 73.9-27.9 112.8-2 12.9-2.2 18.7-2.5 71.8l-.4 57.8 2.6 17.7c3.6 24.9 9.2 56.8 12 69.5 9 40 29.2 99.4 47.9 141.2 4.2 9.3 9.3 20.7 11.3 25.3 2 4.6 5.8 12 8.4 16.5 2.7 4.5 6.6 11.3 8.6 15 9.1 16.5 26.2 44.2 42.8 69.4 20.5 31.1 17.8 28.9 31.9 25.1 12.9-3.4 85.8-40.9 128.1-65.8 52.1-30.7 99.6-64.9 134-96.4 5-4.5 12.8-11.3 17.5-15 12.7-10.2 16.6-14.2 35.4-36.1 9.5-11 18.3-20.9 19.6-22 1.2-1.1 5.5-6.3 9.4-11.5 36.6-48.4 57.7-88.3 67.6-127.9 1.2-4.6 1.9-8.6 1.5-8.9-1.1-1.1-43.3 7-64.5 12.3-55.2 13.9-118.3 47.6-173 92.4-36.3 29.7-74.7 69-107.1 109.6-14.8 18.6-33.8 44.3-40.3 54.4-5.8 9.1-12.9 18.2-14.9 19-1.3.5-.5-5.1 4.3-28.9 2.8-13.9 4.3-24.1 5-35.5.5-8.8 1.9-26.4 3.1-39 1.7-18.2 2-27.1 1.5-42.5-.3-10.7-1-21.5-1.6-24-.5-2.5-1.7-12.4-2.5-22-7.5-86.2-37.3-184.7-80-264.1-24.3-45.2-60.6-98.9-67-98.9-.7 0-5.1 11.6-10.8 28.7zm702.3 32.1c0 1.6 19.6 20 27.5 25.7 4.4 3.2 16.6 14.5 27 25 10.5 10.6 22.8 22.1 27.5 25.6 4.7 3.5 16.8 14.5 27 24.4 10.2 9.9 22.6 21.1 27.5 24.8 5 3.7 18.2 15.8 29.5 27s24.3 23.2 29 26.7c4.7 3.5 17.1 14.8 27.5 25 10.5 10.3 22.8 21.6 27.6 25.2 4.7 3.6 16.8 14.6 27 24.4 21.2 20.4 33.3 31.2 40.4 36l5 3.4H1719l-.2-23.9-.3-23.9-122.8-123.1-122.9-123.1h-284.4c-156.4 0-284.4.4-284.4.8zm3813.2 292.9c-37.8 39.9-67.6 78.1-92.5 118.4-2.6 4.1-5.8 8.6-7.3 10-1.4 1.3-4.1 5.7-5.9 9.7-1.9 4-6.5 12.6-10.3 19-23.3 39.3-48.1 98.4-62.7 149.2-13.4 46.8-19.9 86.1-23 139-1.4 24.5-1.4 28.2.1 49.1 1.2 15.5 1.4 23.7.8 26l-1 3.4-5.1-10c-2.8-5.5-8.1-16.9-11.8-25.4-3.8-8.5-8.6-18.6-10.8-22.5-2.2-3.9-7.3-13.3-11.3-20.9-18.7-35-39.8-66.4-70.2-104.7-7.4-9.2-23.3-26.5-43.6-47.3-27.7-28.3-34.2-34.4-47.6-44.6-44.1-33.6-84.9-55.9-123.3-67.5-11.2-3.4-31.6-8-32.3-7.3-.2.2.3 2.6 1 5.3.8 2.7 2.7 11.1 4.1 18.7 7.5 39.7 26 85.7 52.2 130.1 32.5 54.8 57.2 84.8 121.4 147.6 43.6 42.5 58.4 55.4 91.9 80.1 21 15.5 87.3 61.3 90.7 62.6.7.3 6.7-4.8 13.5-11.4 38.3-37 63.8-67.9 96.3-116.8 49.2-74.2 78.1-136 97.8-209.5 13-48.1 18.2-80.3 19.7-120.5.5-12.1 1.4-26 2.1-30.8 1.1-7.6 1-11.5-.6-27.4-.9-10.2-1.9-23.8-2-30.2-.6-21.9-12.1-86.1-15.5-86.1-.5 0-7.1 6.6-14.8 14.7z"/><path d="M68.7 2051.2c-1.5 6.2-3.1 14.9-3.6 19.3-.6 4.4-2 14.1-3.1 21.5s-2 17.2-2 21.7-1.1 15.7-2.5 25c-3 20.3-3.1 27.2-.4 38.3 1.5 6.3 2.2 14.3 2.9 31 .7 19.8 1.3 25.2 5 45 9.7 52.6 17.4 82.8 28.5 111.5 2.6 6.6 6.4 17.1 8.5 23.3 4 11.6 24.2 53.4 37.3 77.2 24.1 43.7 45.8 75.9 80.4 119.3 14.4 18.1 23 27.5 46.2 51l28.6 28.7 5.1-.8c4.4-.7 8-3 29-18.4 80.9-59.4 104.4-79.5 162.1-139 35.8-36.8 58.3-64.3 82.2-100.1 14.3-21.5 19.6-30.6 31.1-53.8 26.4-53.2 38.8-90.6 43.5-130.4.7-6.6 1.2-12.1 1-12.3-.2-.2-2.3.9-4.7 2.6-2.4 1.6-5.9 3.3-7.8 3.7-1.9.4-9.9 2.9-17.7 5.6-58 19.8-113.4 56.5-165.8 110.1-29.3 29.8-69.3 82.9-94.5 125.3-11.4 19.1-33.5 63.2-45.5 90.8l-10 22.8-.7-4.3c-.3-2.4-.7-19.6-.7-38.4-.1-36.3-.8-44.9-7.7-89.4-9.4-61.3-31.8-127.7-66.1-196.5-27.9-55.7-70.9-116.8-118.4-168.1-13-14-34.5-33.4-37.1-33.4-.3 0-1.7 5.1-3.1 11.2zm1202.5-4.3c-2 1.2 14.4 17.5 33.8 33.6 8.5 7.1 20 17.2 25.5 22.5 5.5 5.3 14.3 13 19.6 17.2 5.2 4.2 12.7 10.8 16.5 14.8 3.8 3.9 12.3 11.5 18.9 16.7 6.6 5.3 14.5 11.9 17.5 14.8l5.5 5.3 17 1.3c16.7 1.2 29.9 1.3 207.5.9 34.4-.1 71.7.2 82.9.6l20.4.7-.6-2.4c-.3-1.3-1.1-6.2-1.7-10.9-.7-4.7-2.1-11.1-3.1-14.2-1.8-5.3-1.9-9.4-1.9-53.8v-48h-228.2c-125.6 0-228.9.4-229.6.9zm71.1 190.8l-13.3.4V3966l429.3.2 429.2.3 19.6 2.7c24.1 3.3 33.6 5.4 50.4 10.8 28.1 9.1 48.5 18.8 95 45.5 16.9 9.7 31 17.3 31.4 17 .3-.4.8-310.6.9-689.5.4-668 .3-688.8-1.5-689.4-6.7-2-24.1-3.9-44.3-4.6-36.7-1.3-89.1-8.9-133.2-19.4-36.7-8.7-81.2-23.9-116.3-39.7-61-27.5-108.2-56.4-142.5-87.3-5.2-4.7-14.7-12.8-21-17.9-16.4-13.5-31.9-29.2-49.5-50.4-33.6-40.4-55.6-72.6-78.2-114.8-17.2-32-34.7-73.3-35.8-84.6l-.7-6.6-12.1-.7c-11.6-.6-380.4-.5-407.4.1zm199.3 474l11.2.6 12.5 51.1c40 162.1 43.5 177 47.7 200.5 1.1 6.3 2.2 11.6 2.4 11.8.8.9 4.9-16.8 7.6-33.4 3.6-21.6 7.3-38.5 15.1-68.8 3.3-12.7 12.5-48.7 20.5-80 8-31.4 15.6-60.8 16.9-65.5 1.3-4.7 2.8-10.4 3.5-12.8l1.1-4.2h79.9v5c0 10.1-5.8 33.1-33 130-2.7 9.6-6 21.8-7.3 27-1.4 5.2-4 15.1-6 22s-13 46.7-24.6 88.5c-11.6 41.8-25 90.1-29.8 107.2l-8.7 31.3-30.3.2c-16.7.1-31.5.2-33 .2-2.5.1-2.9-.4-4.9-7.4-1.2-4.1-12.3-41.9-24.7-84-26-88.3-33.1-112.7-61.9-212.5-27.6-95.7-27.7-96.1-28.5-102.3l-.6-5.2h31.9c17.6 0 36.9.3 43 .7zm379.3-.1l6.1.7-.2 38-.3 37.9-40.7-.1-40.8-.2v88.1h72v77h-72v95h82v74h-163v-185.3c0-101.8.3-194.3.7-205.5l.6-20.2h74.7c41.1 0 77.5.3 80.9.6zm128.7.4c37.3 3 61.7 10.4 81 24.8 18.6 13.9 29.1 29.8 34.8 52.9 3 12.1 3.5 15.1 4.5 28.2 3.6 46-13.8 88.4-44.6 109.3-8 5.3-10.6 8.5-10.6 12.6 0 1.5 15.4 42.6 34.1 91.4 18.8 48.8 34.2 89.2 34.2 89.8 0 1.1-66.4 1.4-79.2.4l-7.6-.7-2.2-8.1c-2-7.4-6.9-20.9-21.2-58.1-2.8-7.2-9-23.8-13.8-37-13.5-36.7-16.5-44.6-24.8-64l-7.7-18-.7 4.5c-.3 2.5-.7 44.4-.7 93.2l-.1 88.8h-80v-410l19.3-.3c48.8-.7 73.4-.6 85.3.3zm231.2 204.7l.2 205.3h-32.3c-17.8 0-35.8.3-40 .6l-7.7.7V2711l39.8.2 39.7.3.3 205.2zm-95.9 291.4c13.9 2.3 29.4 7.4 41.2 13.5l8.9 4.6v37.9c0 20.8-.3 37.9-.7 37.9-.3 0-5.4-2.7-11.2-6-24-13.4-33.4-16.4-50.1-15.8-9.2.3-11.3.7-17 3.4-23.5 11.1-28.8 40.5-11.9 65.6 6.2 9.1 13.2 15.7 32.9 30.8 36.8 28.2 51.6 42 62.4 58.3 12.2 18.3 18 40.1 17.9 67.2-.1 30.8-9 59.1-26.1 82.8-11.7 16.3-29.2 28.2-52.2 35.5-14 4.4-22.7 5.7-39.5 5.6-16.8-.1-28.9-2.2-44.2-7.5-6.9-2.4-22.4-9.7-24.1-11.4-.4-.4-.2-75.8.2-76.2.2-.2 5.1 2.3 11 5.5 33.6 18.8 65.1 18.8 83.7.2 8.9-8.9 12.3-19.3 11.4-34.3-.9-14.3-4.5-21.9-15.5-32.7-6.6-6.5-9.3-8.5-37.2-28.4-30.6-21.7-46.5-38.4-57.1-59.7-9.1-18.4-11.7-31.2-11.7-56.8 0-28.5 3.7-45.9 14.1-66.1 9.2-17.8 23.2-33.1 38.9-42.4 10.5-6.2 18.2-8.9 34.5-12 14.8-2.7 22.4-2.6 41.4.5zm-450.7 5.6c.2.5.2 17.8 0 38.5l-.3 37.8h-61.6l-.6 22.7c-.4 12.4-.7 87.6-.7 167V3624h-82v-334h-63v-77h103.9c57.2 0 104.1.3 104.3.7zm201 14.8c4.4 17.2 27.5 113.6 48.9 204 2.8 12.1 11.6 48.8 19.6 81.5 15.4 63.6 25.3 106 25.3 108.2 0 1.1-6.9 1.3-37.3 1.3-20.4-.1-40.1-.5-43.7-.9l-6.6-.8-1.2-9.8c-.6-5.4-3.2-19.1-5.7-30.6-2.6-11.5-4.8-21.8-5-23-.4-1.8-1.4-2.2-8.1-2.8-4.3-.3-22.9-.6-41.5-.6h-33.8l-1.5 5.2c-.8 2.9-1.9 7.1-2.5 9.3-1.8 7.6-7.3 37.8-7.9 44.4l-.7 6.6-6 1.4c-4.6 1.1-14 1.4-40.3 1.4-18.9-.1-34.6-.3-34.9-.7-1.4-1.4 9.5-52.1 25.8-119.6 6.1-25 13-54.1 15.4-64.5 2.4-10.5 11.8-51.2 21-90.5 9.1-39.3 17.5-75.8 18.5-81 1.1-5.2 4.3-19.5 7.2-31.8l5.3-22.2 42.9.2 42.9.3 3.9 15z"/><path d="M2025 2834v55h10.3c35.6-.1 52.9-16.2 55.3-51.5.8-12.6-.8-27.9-3.7-34.1-3.4-7.2-12.2-15.4-21.9-20.3l-8.2-4.1H2025v55zm-141.9 499.1c-6.1 39-12.4 80.1-16 105.4-2.2 15.4-5.1 33.1-6.5 39.2l-2.4 11.3h28.9c23.2 0 28.9-.3 28.9-1.3 0-.7-2-11.4-4.5-23.8-7.5-37.4-13.5-69.6-19.9-108.3l-6.2-36.9-2.3 14.4zm1145.4-1092.7c-2.2 2.3-5.1 8.2-9.1 18.3-13.2 33.4-42.8 87.9-64.9 119.3-36.3 51.6-68.6 88.7-100.8 115.7-5.2 4.3-13.4 11.4-18.3 15.8-10.9 9.8-15.2 13.1-42.1 32.3-23.9 17.1-32.3 22.1-60.8 36.8-72.2 37.1-145.6 59.7-220.5 67.9-8 .9-26.8 1.9-41.7 2.2l-27.3.6V4044l9.5-7.9c37-30.6 82.3-53.2 126.5-63.1 12.6-2.8 34.2-6 45-6.6 5.2-.4 203-.7 439.5-.8l430-.1.3-864.3.2-864.2h-462.3l-3.2 3.4zm-403.6 479c.8 4.3 1.1 55.6 1.1 167.9V3049h86v75.7l-18.2.6c-9.9.4-47.5.7-83.5.7H2545l.2-205.3c.2-112.8.6-205.7 1.1-206.4.5-.8 10.8-1.2 39.1-1.2h38.4l1.1 6.3zm228.1 140.1c.6 156.3.5 153.7 5.6 170.5 3.8 12.8 11.9 23.1 20.8 26.5 6.8 2.6 29.5 1.8 35.3-1.3 5.7-3 10.8-8.2 13.9-14.4 5.5-10.9 5.4-6.5 5.4-161.3 0-131.5.4-153 2.6-163.7l.5-2.6h77.8l.8 6.6c.4 3.7.8 75.5.8 159.7 0 164.1.1 159-5.1 179.5-4.8 18.6-16.7 38.4-29.1 48.6-7.1 5.7-25.1 14.6-36.3 17.8-16.5 4.7-27.1 6-48.5 6-14.1 0-23.3-.5-31.3-1.7-50-7.8-80.3-34-89.1-77.3-3.7-18.1-4.1-35.1-4.1-189.1v-149.2l11.3-.4c6.1-.1 24-.3 39.7-.2h28.5l.5 146zm314.3-145.6l5.8.6 5.6 12.5c16.6 37.5 26.8 65.2 33.3 90.3 2 8.1 4 15 4.3 15.3.6.7 7.7-20.7 7.7-23.3 0-4.5 13.9-42.4 24.6-67.4l11.8-27.6 14.1-.7c7.7-.3 26.9-.6 42.8-.6h28.7v2.3c0 3.8-4.6 16.1-12.5 33.7-4.1 9.1-21.5 48-38.6 86.5l-31.3 70v8l-.1 8 13.4 29c19.3 42 52 114.8 62.1 138.2 4.7 11.1 10.5 23.4 12.8 27.4 2.3 4 4.1 7.4 3.9 7.6-1.9 1.9-54.1 2.8-82.6 1.4l-13.3-.6-10.4-26.5c-13.6-34.5-22.5-60.5-27.5-80.4-2.2-8.8-4.2-16.2-4.4-16.4-1.2-1.2-7.2 14.1-10 25.7-4.1 16.7-10.5 36.1-22.3 67.6-4.9 13.2-9.5 25.7-10.2 27.9l-1.2 3.9-45.4-.5c-24.9-.2-45.6-.7-45.9-1-.3-.3 1-3.8 2.8-7.9 1.9-4.1 7.1-16.6 11.7-27.9 13.4-33.4 34-83.7 52.1-127.1 9.3-22.3 17.4-42.8 18-45.5l1.1-4.9-30.7-70c-16.9-38.5-33.4-76.3-36.5-84-7.1-17.2-10.8-25.2-15.4-33.1-4.1-7-4-7.3 3.9-9.7 4.1-1.3 11.2-1.6 38.5-1.5 18.4 0 36.1.3 39.3.7zM2617 3214h49.7l2.7 17.2c1.5 9.5 7 42.2 12.2 72.5 9.9 58.2 15.7 95 19.9 127.2 1.4 10.7 2.5 19.6 2.5 19.8 0 .2 1.3-.3 2.9-1.1 3.4-1.8 3.6-2.6 5.2-24.1.6-8.8 1.8-18.6 2.6-21.9.8-3.2 2-12.4 2.8-20.5.8-8 2.3-19.8 3.4-26.1 1.1-6.3 3.9-25.5 6-42.5 2.2-17.1 5-36.4 6.2-43 1.1-6.6 2.3-14.3 2.5-17 .3-2.8.9-10 1.4-16.1.6-6.1 1.7-13.4 2.5-16.2l1.6-5.2h107.8l1.1 3.7c.6 2.1 1.5 9.4 2.1 16.3 1.6 20.4 1.9 23.2 21.3 208 10.2 97.6 18.6 178.1 18.6 178.7 0 1-9 1.3-41.5 1.3s-41.5-.3-41.5-1.3c0-3.1-3.3-54.3-6-93.2-1.6-23.7-3.7-54.5-4.5-68.5-.9-14-1.8-26.4-2-27.5-.3-1.1-1.2-15.1-2-31-.8-16-2-34.2-2.6-40.5-1.1-11.6-3.5-27.9-4.2-28.6-.2-.2-.9 5.1-1.6 11.9-3.4 33.7-11 83.2-25.1 163.2-5.4 30.8-11 63-12.5 71.5-1.4 8.5-3.4 19.5-4.4 24.5-1.1 4.9-2.2 11.4-2.6 14.2l-.7 5.3H2678l-.5-2.3c-2.3-10.1-27.7-133.2-35.5-172.7-2.7-13.5-6.5-35.3-8.5-48.5-4.2-27.8-9.6-60.9-10-61.3-.8-.9-1.7 14.2-2.6 43.9-.5 18.4-1.4 36.3-1.9 39.9-.5 3.6-1.4 27.9-2 54-.6 29.1-1.6 52.9-2.6 61.5-1 8.6-1.8 27.7-2.1 49.7l-.6 35.8h-43.8c-37.4 0-43.9-.2-43.9-1.4 0-.8 1.6-18.7 3.5-39.8 2-21.1 7.4-82 12-135.3 12.4-141.8 20.6-232.8 21.1-234.4.3-.9 1.4-1.2 3.5-.7 1.8.3 25.5.6 52.9.6zm487 38.5v38.5h-82v90h25.3c14 0 30.2.3 36 .7l10.7.6v73.7h-70.7l-.7 5.2c-.3 2.9-.6 24.1-.6 47v41.8h82v74.7l-53.2.4c-29.3.3-65.4.3-80.3 0l-27-.6-2-4c-2-4-2.1-5.3-1.7-74 .6-123 .5-175.7-.2-232.5-.7-50.5.1-89.3 1.9-97.8l.5-2.2h162v38.5zm212-37.6c2.2.6 2.6 1.7 4.7 12 1.2 6.3 5.8 26 10.2 44 4.3 17.9 10.5 43.6 13.6 57.1 3.2 13.5 10.2 42.7 15.5 65 5.4 22.3 14.1 58.9 19.5 81.5 5.3 22.5 15.7 65.5 23.1 95.4 7.4 29.9 13.3 54.5 13.1 54.7-.1.1-19.4.4-42.7.5l-42.5.2-1.7-5.3c-1-3-4.1-15.7-6.9-28.4-2.8-12.7-5.7-25.9-6.6-29.4l-1.5-6.2h-39.2c-43.2 0-42.5-.1-44.5 6.3-.5 1.7-1.3 5.7-1.6 8.7-.4 3-2 11.1-3.6 18-3.8 16-4.8 21-5.7 29l-.7 6.5-40.5.6c-22.3.3-40.7.5-40.8.3-.5-.3 6.2-29.9 24-105.4 23.9-101.9 34.6-148.3 42.8-184.5 4.4-19.3 9.5-41.8 11.4-50 1.9-8.3 6-25.8 9-39 3.1-13.2 6.1-25.9 6.7-28.3l1.1-4.2 40.7.1c22.3.1 41.7.4 43.1.8z"/><path d="M3270.6 3326.1c-.3.8-3.7 23.2-7.6 49.9-9.2 63-16.6 108.3-18.6 115.2-.5 1.7 1.3 1.8 28.4 1.8h28.9l-2.4-14.8c-1.3-8.1-5.5-31-9.3-50.8-3.9-19.9-8.6-46.2-10.5-58.5-3.5-22.2-7.4-43-8.1-43.8-.2-.2-.6.2-.8 1z"/><path d="M3542.9 2317.2c-.1 41.2-.3 75.2-.4 75.8-.1.5-.3 367.7-.4 816l-.1 815h-458.7c-493 0-462.6-.3-482.8 4.9-21.5 5.5-64.6 22.1-81 31.2-12.6 7-38.3 23.8-50 32.8-4.4 3.4-19.6 17.7-33.8 31.8l-25.8 25.6-3.2-3.9c-7.9-9.6-23-25.5-32.7-34.2-27.4-24.8-52.4-40.7-87-55.5-36.3-15.5-66.5-23.4-102-26.8-8-.7-147.1-1.1-458-1.2l-446.5-.2-.5-883.5-.5-883.5-53.4 53.5-53.5 53.5-.3 512.5c-.1 281.9 0 681.8.4 888.7l.6 376.3h493.1c301.7 0 497.8.4 505.3 1 38.5 3 71 16.6 93.8 39.5 16.3 16.3 20.6 25.4 27.5 59.8l1.2 5.9 121.3-.4c66.7-.2 121.6-.6 121.9-.9.3-.3 2.1-6.2 4-13 9.4-34.1 20.6-55.8 37.6-73 8.5-8.5 17.7-13.7 29.5-16.6 6.6-1.6 39.3-1.7 520.8-2l513.7-.3v-876.8c0-482.2.3-886.5.7-898.4l.6-21.7-14.4-14.9c-7.9-8.1-18-19.3-22.4-24.7-4.3-5.5-20.6-22.8-36.2-38.5l-28.3-28.5-.1 74.7zm913.4-40.3c-15 2.4-24 20.5-22.3 45l.5 7.3 5.5 5c6.9 6.1 16.8 12.1 24.2 14.7l5.8 2 12.9-6.2 13-6.2 5.3-11.5c6.1-13.3 6.5-17.6 2.5-26.2-3.3-7.1-16.7-22.3-20.4-23.2-5.1-1.1-21.7-1.5-27-.7zM333.2 2326c-8.6 1.3-12.2 4.4-21.4 18.5l-5.8 8.9v8.6c0 8.2.2 8.9 3.8 15 4.9 8 12 15.2 18 18.2 3.5 1.7 6.9 2.4 13.4 2.6 11.9.5 17-1.9 28.9-13.4l8.8-8.7-.6-13.6-.6-13.6-4.4-8.1c-3.9-7.4-4.8-8.4-9.1-10.2-9.6-4.1-21.4-5.7-31-4.2zm4473.1 74.9c-3.5 2.7-12 9.1-19 14.2-37.8 27.4-45.1 33.8-86 75.7-42.4 43.5-56 59.9-87 105.2-23 33.7-27.7 41.8-45.3 79-19.7 41.5-33.2 75-40.3 99.5-6.4 22.1-14.7 58.8-17.1 76-1.3 9.3-3.1 20.1-4 23.8-1.6 6.8-4.5 13.5-4.6 10.7-.6-15.4-18.4-73.2-38.2-124-8.5-21.7-22.8-50.7-39.2-79.4-53.2-92.6-112.4-152.3-192.3-193.8l-15.3-8-.1 14.4c-.3 29.7.3 49.1 1.7 53.1.7 2.1 2.1 9.1 2.9 15.5.9 6.4 3.2 17.8 5.1 25.2 5.1 19.6 20.1 64.2 27.3 81 12.2 28.3 30 61 53.8 98.4 25.4 40 65.1 91.8 93.2 121.6 6.5 6.9 15.4 17 19.9 22.5 10.4 12.9 24.4 26.6 52.2 51.3l22.5 20 4.5-2.6c15.7-9 52.3-36.7 76-57.6 22.6-19.9 66.9-65.8 88.1-91.2 71.6-85.7 121.1-188.5 141.4-293.3 4.3-22.3 8.2-60.7 9.2-89.1.5-17-.5-37.9-2.5-49.3l-.7-3.8-6.2 5zM1.9 2461.7c-1.6 8.7-1.7 23.2-.2 57.3 1.6 36 4.1 52.6 13.8 92.5 12.6 52.2 32.6 104.5 55.2 144.5 31.8 56.3 42.9 72.6 82.4 121 8.8 10.8 22.4 25.1 44.5 47 41.5 41 66.3 62.7 91.4 79.9 4.7 3.3 12.6 9.1 17.5 13 9.1 7.3 16.4 11.3 22.2 12.4 7.1 1.4 27.5-16 47.8-40.8 5.4-6.6 17.1-19.4 26-28.5 35-35.7 88.3-107.5 118.9-160 30-51.5 54.3-108.8 65.1-154 2-8 4.6-18.8 6-24 4.9-19.4 7.7-49.7 7.3-78.7l-.3-20.2-17.5 9.5c-31.6 17.2-50.2 29.4-65.5 42.8-3.8 3.4-10.2 8.5-14.1 11.4-8.7 6.3-17.4 15.4-31.9 33.2-6 7.4-13 15.7-15.6 18.5-14.8 15.9-44.6 61.4-63.3 96.4-20.2 38-32.6 68.3-49 119.8-13.3 41.8-17.6 59.3-17.6 71.5 0 2.1-.4 3.8-.8 3.8s-2.5-1.7-4.6-3.9c-3.7-3.8-3.8-4.1-5.2-15.7-4.1-35.3-12.2-65.2-32.1-118.9-17.8-47.9-53.5-112.2-88.3-159-16.4-22.1-47.5-58-68.5-79.1-20.9-20.9-35.2-33.9-57-51.5-21.7-17.7-61.8-46.9-64.3-46.9-.5 0-1.6 3-2.3 6.7zm3675.3 122.1c-.2 32.8 0 77.6.3 99.4l.7 39.8H3831v-71.8c0-39.4.3-84.2.7-99.5l.6-27.7h-154.8l-.3 59.8zM999.5 2542c-17.6.3-32.1.7-32.2.8-.2.1-.3 44.5-.3 98.7v98.5h159v-196.9l-5.2-.5c-8.6-.9-86.8-1.3-121.3-.6z"/><path d="M4218.6 2799.7c-.3 1.6-.8 4.8-1.1 7.3-.4 2.5-1.6 7.6-2.8 11.5-2 6.7-2.1 9-2.2 55 0 51 .7 62.1 5.5 84 1.1 4.9 2.7 13.3 3.6 18.5 3.1 19.2 19.3 73 31.9 106 9.7 25.3 22.2 52.1 37.8 81 17.1 31.5 44 78.6 46.7 81.5 1.5 1.6 6.7 9.3 11.5 17 9.5 15.1 16.7 25.5 34 49 6 8.3 13.2 18.3 15.9 22.3 2.7 3.9 5.4 7.2 5.9 7.2 2.7 0 20.6-6.8 31.2-11.9 12.9-6.2 54.2-29.5 74.5-42.2 39.4-24.4 103.8-76.5 138.5-112 86.7-88.8 143.4-195.7 164.9-310.9 1.4-7.4 3.2-16.7 4-20.5.8-3.9 1.7-11.1 2.1-16.1l.7-9.2-27.9 14c-37.2 18.7-39.8 20.1-62.3 34.7-43.1 27.8-73.9 50.7-94 69.6-3.6 3.4-10.3 9.3-15 13-19.2 15.5-31.9 28.3-46.7 47.2-2.6 3.4-9.3 11.4-14.9 17.7-34.9 39.8-65 85.9-88.7 135.7-13.1 27.7-22.3 50.2-26.8 65.8-3.5 12.2-8.7 23.6-12.2 26.9l-2.4 2.3-.7-15.8c-2.7-61.5-14.6-121.2-37.6-188.8-19.9-58.5-41.4-101.7-72-144.8-8.8-12.3-15.5-20.3-28.4-33.7-29.7-30.6-47.4-46.7-65.3-59l-7.1-5-.6 2.7zm-3623.1 45.9c-27.5 19.7-56 48.5-80.5 81.4-22.9 30.8-36.9 54.9-53.5 92.5-15.2 34.3-27.8 72.9-39 118.7-7.8 32.1-16.1 89.2-19.5 133.3-1.9 25-1.4 24.9-9.9 1.4-15.2-41.7-27.2-67.5-48.9-104.9-16.6-28.7-20.7-35.1-33.5-52.5-26.2-35.5-31.1-41.2-71.6-81.6-21.2-21.2-42.4-41.7-47.1-45.6-12.4-10.3-48.9-36.8-68.6-49.9-36.5-24.3-76.2-45.7-107.1-57.8-7.8-3.1-14.3-5.6-14.5-5.6-.5 0 9.4 48.3 13.8 67 5.8 24.7 16.2 55.7 27.4 81.5 7.8 17.8 26.5 54.5 38.2 75 14 24.4 44.5 66.4 61.2 84.4 3.4 3.6 8.4 9.5 11.1 13.1 7.4 9.7 22.1 24.6 39.5 39.8 8.5 7.5 19.8 17.5 25 22.2 26.1 23.5 68.4 53.9 109 78.2 35 21 75.5 42 92.1 47.8l9.6 3.4 3.9-4.3c8.4-9.2 39.3-54.6 58.6-86.1 39.3-64 73.9-136 92.4-192 3-9 8.8-30 12.9-46.5 16.1-65.5 19.1-88.1 18.2-137.5-.7-35.4-3.2-55.6-9.4-75.3l-1.8-5.9-8 5.8z"/><path d="M4437.9 3009.2c-10.6 10.2-13.1 14.7-13.7 24.8-1 17.3 6.2 30.6 20.7 37.9 3.9 2 5.2 2.2 14.5 1.6 5.5-.4 11.8-1.1 13.9-1.7 5.1-1.2 11.6-7.3 18.6-17.4l5.7-8.2-.7-8.4c-1.1-12.1-4-19.1-10.8-25.9-7.6-7.6-14-10-28.6-10.6l-11-.5-8.6 8.4zm-4087.8 45.1c-3.6 2.8-8.4 7.6-10.8 10.5l-4.3 5.3v28.1l3.6 5.9c2.5 4.2 5.9 7.7 11.4 11.9 7.8 5.9 8 6 14.4 6 18.8 0 32.2-7.4 39.2-21.5 3.2-6.4 3.7-8.4 3.7-14.2-.1-11.1-6-22.4-17-32.2l-5.7-5.1h-28.1l-6.4 5.3zm3812.9 64.2c-12.4 26.5-20.4 61.6-24 105-.5 6.6-1.7 16.5-2.6 22-1.9 11.9-1.6 24.6 1.5 54.5 1.1 11.3 2.8 27.9 3.7 36.9 7.6 78.8 39.3 182.2 86.7 282.6 18 38.3 25.9 55 26.3 55.4.1.1 4 .3 8.6.4 8 0 9.5-.4 41.3-11 66-22.1 104.4-39.2 156-69.3 47.6-27.8 78-48.8 105.8-73.2 6.5-5.7 16-13.6 21-17.6 12.1-9.6 16-13.4 27.5-27.2 5.4-6.3 14.1-16.3 19.4-22.2 46.8-51.9 80.3-106.8 103.9-170 5.3-14.2 14.9-44.5 14.9-47 0-2.4-27.4 3.4-46.7 9.8-7.3 2.4-17.8 6.4-23.5 8.9-5.7 2.5-12.1 4.8-14.3 5.1-8.1 1.3-74.6 33.2-107.8 51.8-20.7 11.6-64.4 41.6-88.7 61-13.8 11-72 67.6-86.8 84.5-11.1 12.6-26.6 32.8-38.4 50.1-9.7 14.1-31.3 49.9-40.3 66.8-3.3 6.1-6.4 11.2-6.9 11.2-1.5 0 .1-26.4 2.4-39 1.8-10.3 2-15.8 2-53.7 0-37.2-.2-43.8-2-56-1.1-7.6-2.5-20.3-3-28.2-4.1-60.3-25-135.1-54-193.2-21.1-42.2-29.3-53.6-74.2-103.3l-3.6-4.1-4.2 9zm-3506.3 40.6c-13.3 12.2-41.2 48.1-48.4 62.5-2.2 4.3-7.4 13.7-11.6 20.8-4.2 7-8.7 15.6-10.1 19-1.4 3.3-5 12.2-8.2 19.6-17 40.7-34 109.9-38.4 157-3.8 40.6-3.2 138.6.9 164.9 1.2 7.4 2.1 16.5 1.9 20.3l-.3 7-7.1-10.8c-3.9-6-10.6-17-14.8-24.4-10.8-19-41.2-60.2-64.1-87-15.3-18-37.7-40.3-55-54.8-8.2-6.9-18.8-15.8-23.5-19.7-36.7-30.8-90.7-65.1-138.9-88.2-42.7-20.6-72.2-32.1-109.1-42.8-19.1-5.5-50-12.8-50.9-12-.2.3 2.4 7.8 5.8 16.7 3.5 9 8.4 22.4 10.9 29.8 4.9 14.3 11 27.1 25.9 54 27.7 50.4 54.3 86.6 98.9 134.6 20.7 22.1 77.2 66.7 115.7 91.1 31.8 20.1 62 37 83.7 46.8 32.3 14.6 95 38.7 111 42.5 6.3 1.6 17 4.5 23.7 6.5 13 3.8 28.4 7.4 31.9 7.5 1.9 0 3.7-3.4 12.7-23.3 60.1-132.8 89.1-231.7 96.7-329.7.5-7.6.8-32 .6-56-.4-44.8-1.4-58.3-5.7-77.2-1.2-5.1-2.7-12.6-3.5-16.6-.7-4-2.5-11.7-3.9-17-3.5-12.6-16.7-48.2-18-48.2-.5 0-4.5 3.2-8.8 7.1z"/><path d="M4056.6 3416.2c-16.4 15.7-43.1 83.4-50 126.8-.9 5.2-2.7 16.5-4.1 25-6 37.1-6.6 44.6-6.9 96-.3 41.2.5 65.1 2.4 72.2.6 2.1 1.7 12.8 2.5 23.6s2.1 21.9 2.9 24.7c.8 2.7 1.7 7.7 2.1 11 1.4 12.5 7.7 47.5 12.1 66.9 6.7 30.1 16.5 66.4 29.2 108.6l2.8 9.5 9.5.3c11.2.4 30.5-1.2 48-3.9 22.6-3.4 69.1-12.6 79.4-15.7 5.5-1.6 13.8-3.7 18.3-4.7 8.6-1.7 68.3-21.4 85.2-28 88.8-34.9 177.2-94.1 233.4-156.4 37.5-41.4 63.7-78.5 86.5-122.2 4.5-8.6 8.1-15.9 8.1-16.2 0-3-63.9 5.8-102 13.9-116.6 24.9-217.2 72.8-303 144.3-17.9 14.9-79.4 76.3-83.1 83-1.8 3.1-6.6 8.9-10.8 13l-7.6 7.3-.3-3.8c-.2-2.3 1.8-12.2 4.8-23.8 2.7-10.9 5-21.9 5-24.5 0-2.9.8-5.9 2-8 2.3-3.6 5.2-21.3 11.4-67.6 5.5-41.3 5.7-45.5 5.4-91l-.3-42-4.8-34c-3.9-28.4-5.6-37.1-9.9-53-14.1-52.2-33-95.3-56.5-128.8-3-4.2-5.6-7.7-5.8-7.7-.2 0-2.9 2.4-5.9 5.2zm-3282.3 37c-17.9 22.2-33.4 52.7-45.4 89.7-6.9 21.4-15.4 55.3-17.2 69.1-.8 6.3-2.2 13.5-3 16-1 3.1-1.7 11.1-2.1 25.5-.4 13.6-1.1 23.3-2.1 27.5-2.8 11.4-2.9 23.1-.6 38.3 1.4 9.1 2.1 18.4 2.1 27.9 0 18.8 1.3 32.9 5.5 58.3 1.9 11.5 4.1 26.1 5 32.4.9 6.3 3 16.6 4.6 23 1.7 6.4 4.2 16.3 5.5 22 1.3 5.7 4.8 19.4 7.9 30.5 3 11 5.5 20.7 5.5 21.4 0 3.7-9.8-5.2-19.8-17.8-9.5-12-55.3-58.4-69.2-70-72.9-60.9-167.6-110.6-258.5-135.5-42.5-11.6-73.9-18.2-99.5-21-7.4-.8-16-2.1-19-3-5.8-1.6-26.1-2.1-40.3-.9l-7.6.7 4.6 8.6c27 50.2 57.3 90.3 99.4 131.6 30.8 30.1 57.9 52.3 90.4 74 37.7 25.1 75.8 44.9 123 63.7 76.8 30.7 185 54.7 246.5 54.8h11.6l8.2-30.3c13.1-48.2 16-61.8 25.2-114.6 7-39.8 9.8-62.5 11.1-88.6.5-12.1 1.7-25.4 2.5-29.5 3.9-19.9 3.7-42.4-.6-71.8-1.2-8-2-18.7-2-27 0-7.5-.5-16.4-1-19.7-8.4-54.1-15.2-83.2-26.9-114.7-9.9-27-23.8-54.8-36.9-74.1l-1.8-2.7-5.1 6.2zm234.5 30.5l-36.8.3v197l79.3-.2 79.2-.3v-197H1088c-23.4 0-59 .1-79.2.2zm2681.4 18l-8.3.4.3 93.7c.3 82.1.5 94.4 1.9 99 .9 2.9 1.8 5.4 2 5.5.2.1 35.2.1 77.7-.1l77.2-.3V3501l-71.2.2c-39.2.1-75 .4-79.6.5z"/><path d="M4193 3678.9c-5.2 1.6-8.7 4.2-16.4 11.9l-7.8 8 .4 12.8c.6 15.6 2.4 21.6 8.5 28.4 6.8 7.6 18.6 11.4 30.7 9.8 16.6-2.2 32-18.5 33.3-35.2.5-6.2.5-6.3-5.7-16.8-5.7-9.8-6.7-10.9-11.9-13.6-10.4-5.5-23.2-7.7-31.1-5.3zm-293.8 15.3c-11.1 17.3-18 31.4-25.2 51.7l-3.7 10.3 38.1 37.8c30.5 30.3 38.3 37.5 39 36.3 1.2-2.1.1-19.7-1.9-30.3-4.4-23.2-14.7-58.3-24-81.5-4.8-12-15-33.5-15.9-33.5-.2 0-3.1 4.2-6.4 9.2zm-2967.6 45c-13.8 34.9-20.1 60.3-25.3 101.8-2.5 20.6-2.5 79.9 0 101.5 5.3 45.1 16.8 95.7 32.1 142 12.7 38.3 21.7 60.9 33.8 85 9.5 18.8 19.8 41.8 19.8 44 0 .4-3.2-2.2-7.1-5.6-46.2-41.3-98.2-76-150.7-100.4-17-7.9-58.8-24.8-71.7-29-45.3-14.7-98.8-26-157.5-33.1-17.7-2.2-117.8-3.2-137-1.4-11.8 1.1-27.5 3.6-29.2 4.6-1.6 1 20.2 27.9 37.7 46.5 73.8 78.9 181.7 140 298 168.8 40.2 9.9 94.6 18.5 127.1 20 11.5.6 32 1.6 45.6 2.2 19.8 1 27.8 1 40.5 0 8.7-.7 25-1.7 36.3-2.1 19.1-.7 28.7-2 36.3-4.9 2.5-1 2.7-1.4 2.7-6.9 0-3.5.9-8.3 2.1-11.8 1.9-5.1 2.3-9.2 2.9-29.9.5-13.2 1.3-25.8 1.9-28 2.4-9.3 3.3-31.8 2.8-72-.3-30.8-.8-43.4-2-50.5-.9-5.2-2.1-17.8-2.7-28-3.8-64.3-19.7-140.1-40.1-191.1-19.9-50.1-39.3-86.1-61-113.4-6.3-8-25.7-28.5-26.8-28.5-.3.1-4.2 9.1-8.5 20.2zm-301.1-17.4c-10.6 4-15.2 7.9-21.9 18.4l-3.6 5.7v23.7l5 7.9c5.6 8.8 9 11.3 19.2 13.5 7.9 1.8 23.6.8 31.6-2 7-2.5 9.3-5.1 14.1-16.5 3.4-8.1 3.5-21.2.2-29.8-6.4-16.4-28.6-26.8-44.6-20.9zm3073.9 83.9c-16.2.3-19.4.6-20.5 2-1.2 1.3-1.5 18.8-1.7 98.2l-.4 96.6 15.9 12.6c8.7 7 24.1 19.7 34.1 28.3 19.8 16.9 39.1 32.6 48.7 39.6 3.3 2.4 12.5 10.1 20.5 17 18.8 16.4 55.5 47.1 94.5 79 33.9 27.7 43.5 35.8 93.5 77.6 18.4 15.4 58.3 48.4 88.5 73.4 30.3 25 68.3 56.5 84.5 70.1 16.2 13.6 52.3 43.6 80.2 66.6 27.8 23 88.8 73.6 135.5 112.4 91 75.7 125.8 104.5 169.6 140.2l27.8 22.7h73.7c40.5 0 80.1-.3 87.9-.7l14.2-.6-9.1-10.6c-5-5.8-31.5-32.9-58.9-60.1-50.3-50-61-61.2-74.6-77.5-4.2-5-33-34.7-64.2-66-31.2-31.4-62.3-63.5-69.1-71.5-6.8-8-37.6-39.9-68.5-71s-63.5-64.8-72.5-75c-9-10.2-40.5-42.8-70-72.5-50.4-50.8-62.7-63.6-79.5-83-3.8-4.4-32.6-33.9-64-65.5s-62.4-63.8-69-71.5c-6.6-7.7-35-37-63.1-65-30.8-30.7-61-61.9-75.9-78.5-25.5-28.2-45.1-48.4-58.7-60.3l-7.6-6.8-61.4-.3c-33.7-.2-69.9-.1-80.4.1zm-2579.1 17.5c-2.2 2.4-8.6 9.9-14.1 16.8s-11.7 14.2-13.9 16.3l-4 3.8 2.9 8.1c6.6 18.8 18.1 70.5 22.3 101.3 1.4 9.9 3.5 24.5 4.7 32.5 1.2 8 2.4 22.4 2.8 32 .4 13 1 18.5 2.2 21.2 1 2.1 2.2 3.8 2.7 3.8.8 0 1.2-17.5 1.4-55.3.4-103.5-.5-184.7-2.2-184.7-.4 0-2.5 1.9-4.8 4.2zM4313 3990.1c-19.1 1.4-62.9 7.7-86.5 12.5-26.2 5.2-89.7 21.4-91.8 23.4-1.6 1.4 11.3 15.3 50.8 54.5 36.4 36.3 48.7 49.5 60.9 65.2 2.7 3.4 5.6 6.5 6.6 6.8 3 .9 6.7-1.2 24.4-13.7 26.4-18.7 35.5-25.6 42.6-32.3 3.6-3.3 9.9-8.8 14-12 15.3-12.1 37.9-35.6 55.7-57.5 8.6-10.7 35.3-46.1 35.3-46.9 0-1-99.1-1-112 0zm-514.5 164.6c1.3 6.8 2.1 13.8 7 55.8 2.1 18.3 6.4 42.8 7.8 44.2.2.2 26.6.2 58.6.1l58.2-.3-18.3-14.6c-10.1-8-32.5-26.3-50-40.6-27.7-22.8-48.8-39.6-60.9-48.7l-3.7-2.7 1.3 6.8z"/><path d="M3538.7 4187.6c-15.4 48.8-26.9 104.3-34.2 164.4-1.3 11.3-2.9 22.7-3.5 25.5-.6 2.7-1.5 18.3-2 34.5-.8 26-2.6 44.9-4.5 48.1-.8 1.2 5.6 5.6 10 6.8 2.2.6 11.9 2.9 21.5 5.2 48.6 11.3 87.6 17.1 133.5 19.9 9.4.6 19.5 1.5 22.5 2 3 .6 15 1.3 26.5 1.6 16.5.5 23.8.2 34-1.1 7.2-.9 19.8-2 28-2.6 42.5-2.6 81.1-8.7 121.5-19 20.4-5.3 61.4-19 81.5-27.3 16.9-7.1 63.6-29.7 69.5-33.8 15.9-11 27.6-18.7 35.8-23.5l9.6-5.7-2.4-1.7c-14.3-10.3-26.7-19.9-43.5-33.8-29.6-24.5-43.3-35.1-54.5-41.8-4.5-2.8-33.8-5.7-49.7-5-21.1.9-61 3.7-75.3 5.2-49.7 5.4-111.1 19.4-151 34.5-31.8 12-82.5 36.2-107.8 51.5-8.9 5.3-12.5 6.9-16.3 7.3-2.7.2-4.9.2-4.9-.2 0-.3 5.1-8.2 11.4-17.4 29.1-42.8 48.8-76.5 61.6-105.7 3.4-7.7 9.1-20.5 12.7-28.5 11.3-25 20.3-50.8 22.9-65.3l.6-3.7h-4.3c-39.8-.5-112.7-2.2-119.9-2.9-5.2-.5-12.9-1.2-17-1.6l-7.6-.7-4.7 14.8z"/><path d="M3396.3 4179c-4.3.6-6.5 1.8-13 7.1-40.4 32.8-87 94.8-123.6 164.9-27.3 52.1-53.7 119-72.2 183.5-6.3 21.6-16.2 61-20 79-.9 4.4-1.9 8.8-2.1 9.7-.4 1.3 1.5 2.7 8.3 6.1 31.1 15.6 74.2 32 116.5 44.2 24.7 7.2 52.4 14.1 62.3 15.5 4.4.6 10.2 1.8 12.8 2.5 7.3 2.2 14.4 3.3 34.7 5.5 10.2 1.1 22.3 3 26.8 4.1 7.9 2 11.5 2.1 63 2.2 76.4.2 89.4-1 151.2-14.3 65.1-13.9 120.8-37.4 180.1-75.9l12.4-8-4-1.7c-2.2-.9-15.5-6.5-29.5-12.4-37.5-15.8-54.2-21.7-87.5-31-36-10.1-86.4-20.4-116.5-23.9-48-5.6-108-7.3-131-3.9-6.3 1-18.9 2.5-28 3.4-28.4 2.7-62.9 9.3-94.5 18-22.9 6.3-47.7 14.4-58.5 19.1-7.6 3.3-12.3 4.7-17 5.1l-6.5.5 11.5-11.9c49.3-51 91.8-107.2 128.5-169.9 9.4-16.1 12.7-22.8 23.6-48.3 22.5-52.5 33.3-92 36-130.7.5-8.3 2-20.5 3.3-27.3l2.2-12.2-32 .1c-17.7.1-34.4.5-37.3.9zm-2242.3 4.4c0 .2 2 7.1 4.5 15.3 10.2 33.7 23.3 65.9 41.6 101.8 20.2 39.8 36.5 66.7 63.5 104.6 11.2 15.7 20.4 28.9 20.4 29.2 0 .3-8.4-4.2-18.7-10-23.8-13.2-59.5-31.1-78.3-39-16.1-6.8-49.1-18.3-70.4-24.4-36.2-10.5-71-17.1-113-21.5-20.2-2.1-101.8-3.1-126.5-1.5-53.7 3.5-109 13.6-161.4 29.3-6.6 2-6.8 2.1-5 3.8 6 5.7 40 33.3 51.3 41.8 16.5 12.4 46 30.3 72.5 43.8 126.4 64.7 272.1 83.7 432.5 56.3 29.7-5.1 70.9-14.4 93.3-21l6.7-2v-6.8c0-3.8-.9-12-2-18.2-1.1-6.3-2.5-18.6-3-27.4-.5-8.8-1.8-21.6-2.9-28.5-1.1-6.9-2.3-16.6-2.5-21.5-.3-5-1.4-12.4-2.5-16.5s-3-14.3-4.1-22.5c-5.1-36.3-16.8-82-35.1-137.8l-9.2-27.7h-75.8c-41.8 0-75.9.2-75.9.4z"/><path d="M1394.6 4186.8l-3.8 2.6.6 11.6c6.2 104.3 53 213.2 132.8 309.1 6.2 7.6 15 18.1 19.5 23.5 4.5 5.5 20.4 22 35.3 36.9 14.9 14.8 26.6 27.1 26 27.3-2.3.8-17.4-3.3-42-11.3-30.5-10-51.1-15.1-80.2-19.9-11.9-2-23.9-4.3-26.5-5.1-8.1-2.5-55.9-3.8-112.5-3.1-40.5.5-51.7 1-56 2.2-2.9.8-11.2 2.1-18.5 2.9-21.7 2.3-48.3 7.7-89.6 18.1-39.6 9.9-87.7 27.9-130 48.7l-16.9 8.2 17.9 10.7c50.1 29.9 94.6 48.1 153.7 62.7 49 12.2 79 15.9 134.1 16.8 37.4.6 59.2-.3 90-3.8 89.5-10 168-32.5 256.1-73.5l16.2-7.5-2.5-11.7c-16.3-77.5-46.3-159.3-91.9-250.4-30.8-61.6-87.7-136.7-129.9-171.8-5-4.1-11.9-9.9-15.5-12.9-12.2-10.2-22.7-13.1-47.3-13-14.8 0-15.3.1-19.1 2.7zm2327.9 43.6c-8.1 2-14.6 5.6-20.6 11.6l-5.6 5.5-.7 9.3c-.4 5.1-.4 12.7 0 17l.6 7.7 8.1 7.8c10.4 10 16.7 13.2 26.2 13.2 6.3 0 8-.5 16.7-4.7 9.4-4.5 9.8-4.8 12.6-10.5 5.6-11.1 8.4-18.8 8.4-22.8-.2-8.3-4.5-16.4-14.8-27.4-4.6-5-6.3-6.1-10.5-7-6.4-1.4-14-1.3-20.4.3zm-2606.7 33c-6.6 2.7-13.5 7.6-19.6 13.9l-4.4 4.5.4 15.3c.3 13.4.6 15.9 2.5 19.4 2.9 5.5 8.8 11 14.8 13.7 4.5 2.1 6.5 2.3 19.4 2.3h14.4l6.7-7.3c8.3-9.2 12.7-16.3 13.9-22.9 1.2-5.8.3-9.7-4-18.8-4.4-9.4-9.1-14.2-18.3-18.6-9.8-4.8-16.8-5.2-25.8-1.5zm-452.9 76c-24.6 25-48.6 50.2-53.8 56.6-5.1 6.4-26 28.4-47 49.5-20.8 20.9-42.2 43.4-47.7 50-5.4 6.6-26 28.4-45.9 48.5-19.8 20.1-40.5 41.9-46 48.4-5.4 6.6-25.2 27.3-43.9 46-18.8 18.8-38.6 39.5-44.1 46.1-5.4 6.6-16.7 19-25 27.5-21.9 22.4-25.9 28.3-33.1 48l-3.8 10.5v21c-.1 20.6 0 21.2 2.7 29 3.4 9.6 10.6 20.7 15.9 24.6 5.7 4.1 12.7 6.4 27.5 9.3l12.8 2.4 10.7-1.9c12.8-2.3 25.1-6 33.3-10.2 9.9-4.9 24.7-16 36.7-27.5 6.2-5.9 16.7-15.2 23.3-20.7 6.6-5.5 23.5-20.3 37.5-32.9 14-12.6 30.2-26.8 36-31.5 5.7-4.7 14.5-12.4 19.5-17.1 4.9-4.8 14.6-13.1 21.5-18.6 6.9-5.6 16.1-13.4 20.5-17.5 4.4-4.1 10.2-9.2 12.9-11.4 2.7-2.1 11.3-9.8 19-17 7.8-7.1 17.5-15.7 21.6-19 4.1-3.2 12.2-10.4 18-16 5.8-5.6 13.9-12.8 18-16 10.5-8.2 23.2-19.2 55-47.4 31-27.5 56.7-49.6 68.5-59.1 4.4-3.5 8.6-6.9 9.4-7.6 1.1-1 .3-1.8-4.8-4.4-17.6-8.8-70.5-48.7-91-68.5-16.2-15.8-41.9-46.4-40.6-48.5.3-.5 3.8-3.1 7.8-5.8 7.8-5.2 43.3-19.9 64.7-26.7 15.7-5 35.5-10 47.5-11.9 5.5-.9 11.5-1.9 13.3-2.2 5-.8 3.9-3.6-1.8-4.7-2.5-.5-19.1-4.4-37-8.7-30.1-7.3-42.8-10.2-43.3-9.9-.1.1-20.2 20.4-44.8 45.3zm2509.9-42.9c-35.9 9.9-79.7 36.2-129.4 77.8-26.7 22.3-37.5 32.5-48.2 45.6-4.8 5.8-12.5 15.1-17.3 20.6-43.1 50.2-82.6 109.2-116.9 174.5-12.9 24.6-19.8 39.5-37 79.8l-13.8 32.2 20.2 13.4c57.3 37.9 111.8 66.1 169.5 87.6 9.1 3.4 20.5 7.3 25.5 8.6 5 1.4 15.6 4.5 23.6 7 44.7 13.7 91.2 22.8 138 27 22.5 2.1 74.8 2.3 95.5.5 35.1-3.1 61.4-7.5 95-15.8 20.9-5.1 29.8-7.9 70.4-22.2 16.9-6 23.9-9.9 21.5-12-2.1-2-29-19.4-41.9-27.3-55.5-33.6-110-59-162.3-75.7-46.7-14.9-66.7-19.8-98-24.1-7.5-1-16.8-2.5-20.7-3.4-14-3-35.8-4.8-74-5.8-39-1.1-65.2-.4-77.5 2.3-2.5.5-10.5 1.4-17.8 1.9-7.6.6-22.8 2.8-36 5.4-32.9 6.4-30.2 6.1-30.2 3.3 0-1.9 1.8-3.5 9.6-8.3 9.3-5.7 33.8-23.6 44.7-32.6 60.2-49.7 89.1-78.6 123.6-123.6 39.7-51.6 70.5-109.4 84-157.2 8.6-30.5 11.9-48.4 12.8-68.3l.6-13.7-2.4.1c-1.3 0-6.3 1.1-11.1 2.4z"/><path d="M1670.4 4309.7c.3 1.5 2 12 3.7 23.3 7.5 49.8 24.9 98.7 52.4 146.6 12.8 22.3 39.5 59.8 52.7 74 4 4.3 11.8 13.3 17.3 19.9 11.7 14.2 33.4 36.2 46 46.5 5 4.1 14.6 12.4 21.5 18.6 23.9 21.2 50.5 41.2 77 57.9 14.3 9 15.8 10.2 18.4 14.6 1.9 3.3 1.6 3.3-3.4-.2-1.5-1-5.5-2-9.9-2.4-4.1-.4-19.6-2.5-34.5-4.8l-27.1-4.1-52.5-.3c-44.1-.4-54.1-.2-62.5 1.1-5.5.9-15.6 2.3-22.5 3.1-59.1 6.9-113.1 21.1-175 46-46.4 18.7-73.1 32.5-119.9 61.7-18.8 11.8-48.1 30.7-49.4 31.8-.5.4.2 2.8 1.4 5.4 2.2 4.4 2.5 4.6 6.6 4.6 2.4 0 7.4 1.1 11.1 2.4 3.7 1.3 11.9 4.3 18.2 6.5 37.6 13.4 82.7 23.4 126.4 27.8 23.1 2.3 83.3 2.3 108.1-.1 67.8-6.5 135.7-24.2 214.5-55.8 37.7-15.1 92.9-45.2 133-72.6 19.2-13.1 35-25 35-26.6 0-3.1-12.3-30.8-24.6-55.6-38-76-79.6-142.6-121.8-195-32.2-40-68.9-76.4-106.2-105.6-19.9-15.5-56.1-38.7-77-49.2-3.4-1.7-15.6-6.3-27-10.3-11.5-3.9-23.1-8.2-25.7-9.6l-4.9-2.4.6 2.8z"/><path d="M2870 4430.1c-20.7 3.2-34.2 6.6-56.8 14.3-24.9 8.5-39.9 15.6-64.5 30.4-26.6 15.9-53.7 35.8-77.2 56.7-21.1 18.7-79.6 77.7-86 86.6-3.3 4.6-9.6 12.7-14 17.9-27 31.6-69.9 90.1-83.5 113.8-3.6 6.2-8.5 13.9-11 17l-4.5 5.7-.7-8.5c-.3-4.7-.6-28.9-.7-53.8l-.1-45.2h-91v44c0 24.2-.4 44-.8 44-2.1 0-13.9-14-21.4-25.5-22.9-34.9-62.4-85.1-104.6-132.8-5.8-6.6-18.9-19.8-29.1-29.4-77-72.8-142.1-112.3-212.3-128.8-8.1-1.9-13.5-2.5-21.9-2.5-13 0-12.4-2.4-4.2 18.5 18.1 45.9 44.2 87.9 84.8 136.7 28.1 33.7 31.3 37.3 43 48.2 21.3 19.9 51 45.3 64.2 54.9 41.7 30.5 74.6 50.7 120.8 74.3 14.3 7.3 25.3 13.5 24.5 13.7-.8.3-12.3 1.9-25.5 3.7-168.3 22.4-298.2 67.7-391 136.5-6 4.4-13.9 10.2-17.5 12.7-5.9 4.2-52.9 50.3-56.5 55.5-.9 1.2-2.2 4-3 6.2l-1.4 4 4.7.7c5.8.9 51.8-.2 70.2-1.6 52.3-4 105.2-13.5 157.7-28.4 36.8-10.4 84.2-27.2 97.8-34.7 4.4-2.4 10-5.3 12.5-6.3 30.1-12.9 70-35.2 101-56.4 27.7-19.1 70.4-52.7 86.6-68.2 8.1-7.8 17.8-15 20.1-15 1 0 1.3 15 1.3 73.5v73.5h91v-80c0-44 .2-80 .5-80 .4 0 7.2 6 15.3 13.3 72.3 65.2 140 110.2 213.4 142.1 29.6 12.8 72.6 28.3 89.1 32.1 3.7.9 14.4 3.8 23.7 6.5 39.3 11.4 86.2 19.4 135 23 8 .6 21 1.8 29 2.7 18.7 2.2 42 2.1 51.9 0 4.1-.9 7.6-1.9 7.9-2.2.3-.3-1.7-2.9-4.5-5.8-2.7-2.8-8.3-9.2-12.4-14.2-10.5-12.9-15.6-18.1-22.4-23.4-3.3-2.5-9.9-7.9-14.6-12.1-20.7-18.2-49.4-38.4-75.9-53.4-57-32.4-134.1-61-213.5-79.2-38.6-8.9-37.8-8.8-76.5-14.9-40.4-6.4-54.7-8.3-68.7-9.2-5.7-.3-10.3-.9-10.3-1.2 0-.4 3.9-2.6 8.8-5 55.2-27.3 130.3-76.4 166.4-108.8 14.2-12.8 64.9-64.8 75-77 9.8-11.8 28.1-36.3 39-52.3 11.2-16.4 22.9-36.9 33.9-59.3 8.5-17.7 21.2-47.4 20.7-48.7-.2-.4-5.5.2-11.8 1.1zm219.1 155.8c-8.2 2.9-12.9 6.8-19.3 16l-5.8 8.4.6 8.6c1.5 23.4 6.4 30.5 25.5 37.2l10.2 3.6 12.2-4.9 12.2-4.9 6.1-9.9 6.2-9.9v-18.3l-5.1-8.4c-5.7-9.5-6.3-10-17.9-15-10.3-4.5-17.3-5.2-24.9-2.5zM1758 4600.4c-11.2 4.2-12.4 5.1-17.5 11.9-6.3 8.3-10.9 18.3-10.9 23.7-.1 6.5 7.2 20.8 13.9 27.4 4.6 4.5 6.2 5.4 14.9 8 8.8 2.7 10.1 2.8 13.4 1.7 9.2-3.2 16.7-7.6 22.2-12.9 5.3-5.2 6.1-6.6 8.9-15l3-9.2-2.9-8.6c-2.6-7.7-3.7-9.4-10.2-16.3-6.6-7-7.9-7.8-15.1-10.3-4.3-1.5-8.6-2.9-9.5-3.2-.9-.2-5.5 1-10.2 2.8z"/></g></svg>
